<svg xmlns="http://www.w3.org/2000/svg" width="49" height="52" viewBox="0 0 49 52">
  <metadata><?xpacket begin="﻿" id="W5M0MpCehiHzreSzNTczkc9d"?>
<x:xmpmeta xmlns:x="adobe:ns:meta/" x:xmptk="Adobe XMP Core 5.6-c132 79.159284, 2016/04/19-13:13:40        ">
   <rdf:RDF xmlns:rdf="http://www.w3.org/1999/02/22-rdf-syntax-ns#">
      <rdf:Description rdf:about=""
            xmlns:xmp="http://ns.adobe.com/xap/1.0/">
         <xmp:CreatorTool>Adobe Photoshop CC 2015.5 (Windows)</xmp:CreatorTool>
      </rdf:Description>
   </rdf:RDF>
</x:xmpmeta>
                                                                                                    
                                                                                                    
                                                                                                    
                                                                                                    
                                                                                                    
                                                                                                    
                                                                                                    
                                                                                                    
                                                                                                    
                                                                                                    
                                                                                                    
                                                                                                    
                                                                                                    
                                                                                                    
                                                                                                    
                                                                                                    
                                                                                                    
                                                                                                    
                                                                                                    
                                                                                                    
                           
<?xpacket end="w"?></metadata>
<defs>
    <style>
      .cls-1 {
        fill: #2d6fd4;
        fill-rule: evenodd;
      }
    </style>
  </defs>
  <path class="cls-1" d="M583.72,1262.07l-13.247-13.76a0.989,0.989,0,0,0-.721-0.31H550.007a4.014,4.014,0,0,0-4.007,4.01V1266h-8a3,3,0,0,0-3,3v15a3.005,3.005,0,0,0,3,3h8v9a4.006,4.006,0,0,0,4.007,4h29.986a4.006,4.006,0,0,0,4.007-4v-33.24A1.012,1.012,0,0,0,583.72,1262.07ZM570,1250.7l10.875,11.3H570v-11.3ZM538,1285a1,1,0,0,1-1-1v-15a1,1,0,0,1,1-1h27a1,1,0,0,1,1,1v15a1,1,0,0,1-1,1H538Zm41.994,13H550.007a2.007,2.007,0,0,1-2.007-2v-9h17a3.005,3.005,0,0,0,3-3v-15a3,3,0,0,0-3-3H548v-13.99a2.009,2.009,0,0,1,2.007-2.01H568v13a1,1,0,0,0,1,1h13v32h0m-35.045-22.62a2.265,2.265,0,0,0-1.236-.84,9.775,9.775,0,0,0-2.063-.13h-2.783V1281h1.734v-3.24h1.131a10.15,10.15,0,0,0,1.8-.12,2.678,2.678,0,0,0,.9-0.41,2.41,2.41,0,0,0,.73-0.85,2.8,2.8,0,0,0,.287-1.33A2.662,2.662,0,0,0,546.955,1273.38Zm-1.486,2.36a1.157,1.157,0,0,1-.542.43,4.522,4.522,0,0,1-1.371.13h-0.949v-2.44h0.838a8.142,8.142,0,0,1,1.248.06,1.209,1.209,0,0,1,.7.38A1.224,1.224,0,0,1,545.469,1275.74Zm10.322-.98a3.8,3.8,0,0,0-.82-1.4,2.974,2.974,0,0,0-1.295-.79,6.2,6.2,0,0,0-1.635-.16h-3.17V1281h3.264a5.3,5.3,0,0,0,1.535-.18,3.03,3.03,0,0,0,1.218-.69,3.7,3.7,0,0,0,.92-1.52,5.61,5.61,0,0,0,.264-1.82A6.292,6.292,0,0,0,555.791,1274.76Zm-1.688,3.52a1.8,1.8,0,0,1-.454.83,1.578,1.578,0,0,1-.7.36,5.075,5.075,0,0,1-1.049.08h-1.295v-5.69h0.78a8.4,8.4,0,0,1,1.423.08,1.65,1.65,0,0,1,.8.41,1.932,1.932,0,0,1,.492.83,5.181,5.181,0,0,1,.176,1.53A5.581,5.581,0,0,1,554.1,1278.28Zm9.34-4.42v-1.45h-5.889V1281h1.735v-3.65h3.586v-1.45h-3.586v-2.04h4.154Z" transform="translate(-535 -1248)"/>
</svg>
