<svg xmlns="http://www.w3.org/2000/svg" viewBox="0 0 298.67 316.46"><defs><style>.cls-1,.cls-2,.cls-3,.cls-4{fill:none;stroke:#000;}.cls-1{stroke-linecap:round;stroke-linejoin:round;}.cls-1,.cls-2{stroke-width:1.5px;}.cls-2,.cls-3,.cls-4{stroke-miterlimit:10;}.cls-4{stroke-width:2px;}</style></defs><title>Ресурс 1</title><g id="Слой_2" data-name="Слой 2"><g id="Слой_5" data-name="Слой 5"><path class="cls-1" d="M85.52,281c-3.3-.22-8.87.49-8.82-.22a15.55,15.55,0,0,0,2.38-7.9c.65-13,1.89-28.78,4.54-37.48s9.9-9.36,9.9-9.36h12.22a2.46,2.46,0,0,1,2.16-2.54"/><path class="cls-1" d="M78.6,281.64s-1.35,7-3.14,8.22,10.71.27,10.71.27"/><path class="cls-1" d="M80.06,290.78s-.05,8.65,2.33,11c4.27,4.44,32.89,7.19,53,8.71,0,0,8.55-10.22,13-10.82,4.71-.27,37.92-.16,37.92-.16"/><path class="cls-1" d="M186.29,191.46s-40.5.53-45.25,1.7c-5.52.61-10.3,4.46-14.6,12a158.59,158.59,0,0,0-8.8,17.34c.49.76-.41,2.14,6.33,2.1s62.32-.61,62.32-.61"/><path class="cls-1" d="M108.81,225.11s.41-1.16-.35-1.76-2.76-.89-3-2.16a7.78,7.78,0,0,1,0-2.43l-7.41-.19S95,216.27,95,215.05s2.65-2.95,2.65-2.95l10.71.11s2.87,1.95,2.92,2.92-4.54,3.65-4.54,3.65-.43,1.49.05,2.11,1.78,1,2.57,1.8c0,0,3.43-2.83,3.6-2.93,3.08-6.38,6.92-6.82,8.11-7.52,8.06-15,11.9-19.47,20.61-23.64,12.22-2.54,44.62-2,44.62-2"/><path class="cls-1" d="M150.95,225.11s1.8,4.11,1,4.27-15.87,1.14-17.82.41-5.76-2.87-6.82-4.68"/><path class="cls-1" d="M123.28,225.11s6.09,8.57,9.74,9.38,24.5,1.14,25,0c.81-1.62-2.36-8.54-2.92-9.38"/><path class="cls-1" d="M170.42,225.11s-.08,2.16,1.05,2.89,9.49,4.87,10.3,4.87h4.52"/><path class="cls-1" d="M112.81,227.59c.41.66,2,2.53-2.68,4.88S92.69,241.31,90.5,249c0,1.46,13.55,8.52,41.05,9.82,0,0,44.71,2.92,45.11,2.68s4.3-4.3,5.35-4.46,4.27-.16,4.27-.16"/><path class="cls-1" d="M186.22,286.27s-2.61-.19-4.47-.21c-1.51-.85-6.49-11.56-8.87-12.85s-27.8-3.57-27.8-3.57"/><path class="cls-1" d="M125,258.4l2.79,4.52L125,266.71a20.61,20.61,0,0,0-4.35.43c-1.41.43-5,2.38-8.87,2.49s-23.19-3.26-23.95-4,2.69-16,2.69-16C100.59,254.33,113.3,257.11,125,258.4Z"/><path class="cls-1" d="M186.29,291.86s-15.74.27-21-1.46c-3-1.08-13.85-19.69-20.61-20.77S125,266.71,125,266.71"/><path class="cls-1" d="M89.06,256.37a51.58,51.58,0,0,0,17.1,5.88,134.48,134.48,0,0,0,21.61.68"/><path class="cls-1" d="M139.84,305.66s-47.53-2.37-50.15-13.23c-3.52-8-2.68-37.72.81-43.41"/><path class="cls-1" d="M87.46,276s0,8.43,3,14c3.65,5.68,8.76,5,19,7.79A114,114,0,0,0,130.91,301l8.93-9.15s-2.36-4.8-8.77-11.62c-.32-.41-35.64-8.61-37.51-9.42s-6.13-.95-6.13-.95,0,7,.27,10c2.46,2.78,25.89,8.46,40.07,10.56.22.26-1.95,2.2-1.95,2.2s-24.74-.56-37.21-7.64c-2.44-6.45-.54-25.13-.54-25.13"/><path class="cls-1" d="M186.29,260.47h-2.7s-5.95,8-5.95,9.7,5.73,11,5.73,11h2.92"/><path class="cls-1" d="M186.29,276.88s-3.57-5.1-3.57-6.07,3.57-6.37,3.57-6.37"/><path class="cls-1" d="M80.73,299.81c-1.26,1.46-8.73,6.17,3.77,8.76,12.17,3.73,72.8,7.14,101.8,7.14"/><path class="cls-1" d="M287.69,281c3.3-.22,8.87.49,8.82-.22a15.55,15.55,0,0,1-2.38-7.9c-.65-13-1.89-28.78-4.54-37.48s-9.9-9.36-9.9-9.36H267.46a2.46,2.46,0,0,0-2.16-2.54"/><path class="cls-1" d="M294.61,281.64s1.35,7,3.14,8.22-10.71.27-10.71.27"/><path class="cls-1" d="M293.15,290.78s.05,8.65-2.33,11c-4.27,4.44-32.89,7.19-53,8.71,0,0-8.55-10.22-13-10.82-4.71-.27-37.92-.16-37.92-.16"/><path class="cls-1" d="M186.92,191.46s40.5.53,45.25,1.7c5.52.61,10.3,4.46,14.6,12a158.59,158.59,0,0,1,8.8,17.34c-.49.76.41,2.14-6.33,2.1s-62.32-.61-62.32-.61"/><path class="cls-1" d="M264.4,225.11s-.41-1.16.35-1.76,2.76-.89,3-2.16a7.78,7.78,0,0,0,0-2.43l7.41-.19s3.06-2.3,3.08-3.52-2.65-2.95-2.65-2.95l-10.71.11s-2.87,1.95-2.92,2.92,4.54,3.65,4.54,3.65.43,1.49-.05,2.11-1.78,1-2.57,1.8c0,0-3.43-2.83-3.6-2.93-3.08-6.38-6.92-6.82-8.11-7.52-8.06-15-11.9-19.47-20.61-23.64-12.22-2.54-44.62-2-44.62-2"/><path class="cls-1" d="M222.27,225.11s-1.8,4.11-1,4.27,15.87,1.14,17.82.41,5.76-2.87,6.82-4.68"/><path class="cls-1" d="M249.93,225.11s-6.09,8.57-9.74,9.38-24.5,1.14-25,0c-.81-1.62,2.36-8.54,2.92-9.38"/><path class="cls-1" d="M202.79,225.11s.08,2.16-1.05,2.89-9.49,4.87-10.3,4.87h-4.52"/><path class="cls-1" d="M260.4,227.59c-.41.66-2,2.53,2.68,4.88s17.44,8.84,19.63,16.55c0,1.46-13.55,8.52-41.05,9.82,0,0-44.71,2.92-45.11,2.68s-4.3-4.3-5.35-4.46-4.27-.16-4.27-.16"/><path class="cls-1" d="M187,286.27s2.61-.19,4.47-.21c1.51-.85,6.49-11.56,8.87-12.85s27.8-3.57,27.8-3.57"/><path class="cls-1" d="M248.23,258.4l-2.79,4.52,2.79,3.79a20.61,20.61,0,0,1,4.35.43c1.41.43,5,2.38,8.87,2.49s23.19-3.26,23.95-4-2.69-16-2.69-16C272.62,254.33,259.91,257.11,248.23,258.4Z"/><path class="cls-1" d="M186.92,291.86s15.74.27,21-1.46c3-1.08,13.85-19.69,20.61-20.77s19.72-2.92,19.72-2.92"/><path class="cls-1" d="M284.15,256.37a51.58,51.58,0,0,1-17.1,5.88,134.48,134.48,0,0,1-21.61.68"/><path class="cls-1" d="M233.37,305.66s47.53-2.37,50.15-13.23c3.52-8,2.68-37.72-.81-43.41"/><path class="cls-1" d="M285.75,276s0,8.43-3,14c-3.65,5.68-8.76,5-19,7.79A114,114,0,0,1,242.31,301l-8.93-9.15s2.36-4.8,8.77-11.62c.32-.41,35.64-8.61,37.51-9.42s6.13-.95,6.13-.95,0,7-.27,10c-2.46,2.78-25.89,8.46-40.07,10.56-.22.26,1.95,2.2,1.95,2.2s24.74-.56,37.21-7.64c2.44-6.45.54-25.13.54-25.13"/><path class="cls-1" d="M186.92,260.47h2.7s5.95,8,5.95,9.7-5.73,11-5.73,11h-2.92"/><path class="cls-1" d="M186.92,276.88s3.57-5.1,3.57-6.07-3.57-6.37-3.57-6.37"/><path class="cls-1" d="M292.48,299.81c1.26,1.46,8.73,6.17-3.77,8.76-12.17,3.73-72.8,7.14-101.8,7.14"/><path class="cls-2" d="M29.63,187.29a24.52,24.52,0,0,0-4.7,4.05,1.15,1.15,0,0,1-.58.42,1.27,1.27,0,0,1-.64-.12c-2.62-.9-5.48.52-7.57,2.34a19.68,19.68,0,0,0-3.55,4.1A10,10,0,0,0,11,201.79a12.79,12.79,0,0,0,1,6.34,20.78,20.78,0,0,0,2.64,5.5,7.91,7.91,0,0,0,5,3.29,11.92,11.92,0,0,0,2.15.06l2.22-.07a13.6,13.6,0,0,0,3-.32,10.77,10.77,0,0,0,2.47-1.07,15.73,15.73,0,0,0,5-4.08,8.87,8.87,0,0,0,1.92-6,5.43,5.43,0,0,1,0-2.58,3.93,3.93,0,0,1,.83-1.12l3.94-4.18"/><path class="cls-2" d="M30.4,187.95l9.5,9.43"/><path class="cls-2" d="M30.5,187.16q23.41-22.64,47.62-44.42C95.6,127,112,110.19,129,94,142.55,81,155.14,66.9,170.14,55.64c4.14-3.1,7.59-7,11.29-10.63.9-.88,1.8-1.76,2.61-2.71s1.47-1.86,2.25-2.76,1.59-1.66,2.41-2.47c2.57-2.53,5-5.18,7.45-7.83"/><path class="cls-2" d="M41.58,197.24q13.51-13.44,27.47-26.41c9.44-8.77,18.4-18.21,28-26.79,1.64-1.46,3.29-2.92,4.87-4.44,2.46-2.38,5-4.7,7.53-7,6.37-6,12.83-12,19-18.12,5.9-5.81,11.77-11.83,17.86-17.45,9.87-9.11,19.37-18.76,29.36-27.75,5.9-5.31,11.17-11.16,16.71-16.85L195,49.77l3.94-4,6.4-6.57c.72-.74.46-2,0-2.87a24.4,24.4,0,0,0-1.91-2.44c-.27-.37-.52-.75-.81-1.1a9.81,9.81,0,0,0-1.65-1.44L199.21,30a5,5,0,0,0-1.36-.81,1.71,1.71,0,0,0-1.52.14"/><path class="cls-3" d="M32.51,189.69,76,148.16c10.36-9.89,20.92-19.79,31.35-29.62l5.89-5.55L131.7,95.58c11.47-10.82,21.84-22.64,33.82-32.89,5.26-4.5,10.43-9,15.7-13.51,1-.81,1.91-1.62,2.82-2.48a76.62,76.62,0,0,0,5.67-6.16L197,32"/><path class="cls-3" d="M197.41,32.51A10.7,10.7,0,0,1,199,34.09c.27.32.52.66.8,1,1,1.05,2.36,1.78,2.9,3.11"/><path class="cls-3" d="M38.72,195.37l7.48-7.07,10.22-9.66c4.58-4.33,9.49-8.39,13.84-12.94,6.93-7.24,14.47-13.79,21.83-20.59,5.92-5.47,11.85-11.11,17.56-16.81,12.43-12.4,25.66-24.55,38.32-37.1,2.58-2.56,5.44-4.75,8-7.32.92-.92,1.83-1.86,2.76-2.79,4.88-4.91,10.12-9.45,15.34-14,8.82-7.66,16.45-16.27,24.62-24.62a42.08,42.08,0,0,0,3.92-4.41"/><path d="M37.59,192.76a15.45,15.45,0,0,1-.27-4,2.48,2.48,0,0,1,.22-1,2.69,2.69,0,0,1,.53-.64L48.44,177c-.41,1.57-.09,3.23-.13,4.86a1,1,0,0,1-.05.35,1.09,1.09,0,0,1-.25.34L46.67,184c-2.72,2.85-5.44,5.7-8.4,8.3"/><path d="M64.75,166.8a8.1,8.1,0,0,1-.17-4,1.77,1.77,0,0,1,.15-.47,2,2,0,0,1,.41-.49c3.46-3.31,6.91-6.64,10.15-10.17a22,22,0,0,0-.22,4.41,1.38,1.38,0,0,1-.07.67,1.34,1.34,0,0,1-.33.38q-2.93,2.67-5.6,5.62a21.54,21.54,0,0,1-3.61,3.49"/><path d="M89.09,144.06c-.17,0-.19-.26-.18-.43l.28-3.53a1.88,1.88,0,0,1,.74-1.5c3.19-3.27,6.5-6.43,9.86-9.52l-.42,1.55a6.65,6.65,0,0,0-.3,1.61,3.41,3.41,0,0,1-.13,1.47,2.21,2.21,0,0,1-.32.44,82,82,0,0,1-8.81,8.89"/><path d="M116.24,117.5l.25-3a4.16,4.16,0,0,1,.4-1.74,4.26,4.26,0,0,1,1-1.05,80.84,80.84,0,0,0,8.61-8.65l-.47,4.07a1.29,1.29,0,0,1-.5,1l-8.15,7.95"/><path d="M140.33,94.27a5.45,5.45,0,0,0,.6-3.17,2.33,2.33,0,0,1,0-1.1,1.91,1.91,0,0,1,.49-.64q4.71-4.62,9.36-9.3l-.12,4a.77.77,0,0,1-.31.69l-9,8.8"/><path d="M164.93,71.09a7.88,7.88,0,0,0-.06-4,.67.67,0,0,1,0-.47.69.69,0,0,1,.29-.26A10.11,10.11,0,0,0,166.81,65l6.47-6-.67,4a1.61,1.61,0,0,1-.15.52,1.63,1.63,0,0,1-.37.41,63.15,63.15,0,0,0-6.55,6.73"/><path d="M186,50.59l-.09-3.28a.66.66,0,0,1,.23-.63l6.83-7.09.08,3.52a.76.76,0,0,1-.28.71l-5.8,6"/><path class="cls-2" d="M1.16,182c11.23.22,22.44-.62,33.66-.82"/><path class="cls-2" d="M1.2,183.15.93,256.32.75,305.53c15.57.58,31.63.84,47.21.14"/><path class="cls-2" d="M48,192.79c-.23,37.14-1.4,74.38-1,111.38"/><path class="cls-2" d="M50.44,190.56c-1.52,37.63.22,74.86-.63,112.73"/><path class="cls-2" d="M48.4,305.15q.58-.61,1.11-1.27"/><path class="cls-4" d="M98,86.65c-3.69,0-7.26-.27-10.54-.58a27.89,27.89,0,0,1-8.09-1.67A22.62,22.62,0,0,1,71.72,79,38,38,0,0,1,61.11,54.33h0A36.79,36.79,0,0,1,71.45,26.87a44.63,44.63,0,0,1,31.93-13.46h.48c14.36,0,25.53,5.13,30.7,14.1,3.8,6.6,3.88,14.25,3.45,20.86-.51,8-1.92,18.08-8.32,25.86-4.64,5.64-11.84,9.67-20.25,11.37A58,58,0,0,1,98,86.65Z"/><path class="cls-4" d="M183.43,174.27c-9,0-24.13-2-32.27-14.18-5.35-8-5.77-17.9-5.44-27.39.14-4,.39-7.81,1.88-11.62a30.26,30.26,0,0,1,7.13-10.1c5.37-5.33,13.5-12.55,22-13.69,9.35-1.25,20.05,3.44,26.38,7.84a36.33,36.33,0,0,1,15.11,22.51,49.85,49.85,0,0,1,.09,15.54c-.87,7.13-2.88,17.35-10.29,23.83-4.82,4.2-11.57,6.54-20.63,7.14C186.27,174.22,184.93,174.27,183.43,174.27Z"/><path class="cls-2" d="M103.8,21.78h-.36A36.22,36.22,0,0,0,77.51,32.64a28.6,28.6,0,0,0-8,21.35h0a29.55,29.55,0,0,0,8.25,19.15,14.56,14.56,0,0,0,4.79,3.5,20.78,20.78,0,0,0,5.74,1.1c6,.57,13,1,19.53-.34s12-4.33,15.45-8.49c4.88-5.93,6-14.38,6.43-21.08.34-5.36.34-11.48-2.35-16.15C122.19,22.81,109.44,21.78,103.8,21.78Z"/><path class="cls-2" d="M179.92,106.93a15.24,15.24,0,0,0-2,.13c-6.54.88-14.38,8.65-17,11.21h0a20.89,20.89,0,0,0-5.13,7c-1,2.52-1.16,5.44-1.28,8.73-.26,7.47-.2,16,4,22.18,4.82,7.21,15.4,11,28.3,10.15,7.07-.47,12.11-2.1,15.41-5,5.13-4.48,6.64-12.56,7.33-18.24a41.85,41.85,0,0,0,0-12.8,27.45,27.45,0,0,0-11.49-16.94C193.37,110.12,186,106.93,179.92,106.93Z"/></g><g id="Слой_2-2" data-name="Слой 2"><path class="cls-3" d="M214.31,31.24c-.23,1.33,1.18,2.29,1.89,3.44a3.79,3.79,0,0,1-1.59,5.23"/><path class="cls-3" d="M218.51,29.76c1.62,1.26.87,3.88,1.67,5.77.52,1.25,1.77,2.3,1.6,3.64-.18,1.53-2,2.19-3.5,2.52"/><path class="cls-3" d="M216.84,102.24a12.57,12.57,0,0,0,3.71,3.42,3.7,3.7,0,0,0,.75,3.54,13.48,13.48,0,0,1,2.11,3.14c.21.59.27,1.21.47,1.8a14.23,14.23,0,0,0,1.87,3,10.17,10.17,0,0,1,1.63,6.14"/><path class="cls-3" d="M223.06,103.7a3,3,0,0,1,1.77,2,20.64,20.64,0,0,1,.55,2.69,10.46,10.46,0,0,0,2.07,4.4c.4.5.86,1.22.45,1.71"/><path class="cls-3" d="M51.72,153.58c2.5-1.95,3.71-5.11,5.86-7.43,1.86-2,4.34-3.3,6.39-5.1a77.47,77.47,0,0,0,5.39-6,29.71,29.71,0,0,1,7.74-6"/><path class="cls-3" d="M52.71,145.32,61.4,138a9.23,9.23,0,0,0,2.19-2.33,11.44,11.44,0,0,1,1-1.84,6.22,6.22,0,0,1,2.1-1.33,14.46,14.46,0,0,0,3.88-2.81"/><path class="cls-3" d="M85.12,10C89.82,8.63,91,6.46,95.79,5.63c2.14-.37,8.31.49,9.82,2.06"/><path class="cls-3" d="M89.37,3.9A13.86,13.86,0,0,1,101.24.79"/></g></g></svg>