<svg xmlns="http://www.w3.org/2000/svg" viewBox="0 0 253.99 289.78"><defs><style>.cls-1,.cls-2{fill:none;stroke:#000;stroke-linecap:round;stroke-linejoin:round;}.cls-1{stroke-width:1.5px;}.cls-3{font-size:21.2px;font-family:Georgia, Georgia;}</style></defs><title>Ресурс 2</title><g id="Слой_2" data-name="Слой 2"><g id="Слой_5" data-name="Слой 5"><path class="cls-1" d="M121,15.34c-.27,3.33-.27,6.72-.27,10.11,4.52,19.22,9,38.44,15.83,56.53,12.44,7.91,10.17,23.74,10.51,35.73"/><path class="cls-1" d="M130.16,114l0,21.7a6.44,6.44,0,0,0,.54,3.2,3.2,3.2,0,0,0,5.51.1,6.19,6.19,0,0,0,.67-2,91,91,0,0,0,1.78-12.21c.2-2.54.28-5.08.37-7.62l.47-13.53"/><path class="cls-1" d="M128.27,115c.49,2.54-.09,5.15-.09,7.73a17.34,17.34,0,0,0,1.68,7.44"/><path class="cls-1" d="M118.83,113.43a2.66,2.66,0,0,1,1.26,1.5l-.05,0v14.93a2.15,2.15,0,0,0,.58,1.59,20,20,0,0,0,3.11,3.56,10.07,10.07,0,0,0,5.67,2.29"/><path class="cls-1" d="M110.55,111.88a.88.88,0,0,1,1,.13c.27.22.71.43.73.78l.5,9.81a17.66,17.66,0,0,0,.28,2.73,9,9,0,0,0,6.75,6.81"/><path class="cls-1" d="M84.94.75q3.75,15.48,8.35,30.74,1.07,3.55,2.17,7.1a105.35,105.35,0,0,0,3.79,10.87c2.87,6.63,7.16,12.89,7.78,20.09.34,4,.23,8.51.88,12.42a29.53,29.53,0,0,0-2.72,9.15,59,59,0,0,0-.28,8.14l.22,18.44c0,1.84.1,3.85,1.31,5.23a7.84,7.84,0,0,0,1.49,1.23l4.32,3"/><path class="cls-1" d="M130.41,114.24a2.41,2.41,0,0,0-1.83-1.29"/><path class="cls-1" d="M126.44,18.22,128,22.57a25.23,25.23,0,0,1,.75,2.41c.35,1.45.44,3,.7,4.42a37.5,37.5,0,0,0,1.35,4.9A18.8,18.8,0,0,0,134,41a2.26,2.26,0,0,1,.53.79,2,2,0,0,1,0,.87,101.29,101.29,0,0,0-.65,23.63c.24,2.68.26,5.37.23,8.06"/><path class="cls-1" d="M145.23,91c2.66-2.08,4.39-5.09,6.18-7.95a227.87,227.87,0,0,1,15.82-21.29,2.2,2.2,0,0,1,2.37-1.11l6.75.39a76.34,76.34,0,0,1,10.39,1.08c8.27,1.64,15.88,6,24.24,7.09"/><path class="cls-1" d="M147.86,102a30.16,30.16,0,0,0,3.18,5.6,12.78,12.78,0,0,0-3.78,2.07"/><path class="cls-1" d="M150,94l8,11.21c.79,1.11,1.58,2.22,2.27,3.4.56,1,1.05,2,1.64,2.93a32.94,32.94,0,0,0,2.53,3.41c1.61,2,3.22,4,4.91,5.86a21.21,21.21,0,0,1,2,2.42c.54.83,1,1.74,1.49,2.58a22,22,0,0,0,2.74,3.23,127.18,127.18,0,0,1,13.69,17.1c.84,1.25,1.75,2.51,2.62,3.73l4.54,6.41a68,68,0,0,1,5.08,7.91,41.5,41.5,0,0,0,2.3,4.27c1.1,1.62,2.56,3,3.67,4.59.57.83,1,1.73,1.66,2.53,1.5,1.95,3.73,3.22,5.26,5.15,2,2.5,2.88,6.18,5.84,7.37a4.19,4.19,0,0,1,1.62.81,2.88,2.88,0,0,1,.55,1.13l2.51,8"/><path class="cls-1" d="M203.48,169.91c-6.28,7.09-8,17.11-13,25.18-.72,1.17-1.5,2.29-2.12,3.51-1,2-1.54,4.25-2.78,6.11-.51.76-1.12,1.44-1.68,2.16a35.38,35.38,0,0,0-2.65,4.17l-1.88,3.29a38.84,38.84,0,0,0-2.57,5.05"/><path class="cls-1" d="M88.27,245.91c7.44-6,16.83-6.82,25.21-9.16"/><path class="cls-1" d="M94.09,240.17c1.78-2.17,5.17-4.44,6.59-8.36"/><path class="cls-1" d="M85.15,249.53q1.27-1.63,2.63-3.17"/><path class="cls-1" d="M141.82,267.28l5.55-7.44a15.35,15.35,0,0,1,3.12-3.41c1-.75,2.23-1.22,3.32-1.89,3.67-2.24,5.71-6.33,7.83-10.08,4.85-8.53,11.09-16.24,15.61-25"/><path class="cls-1" d="M140.94,268.09a26.7,26.7,0,0,0-6.49.78l-3,.62a22.48,22.48,0,0,0-3.36.87,11.25,11.25,0,0,0-2.23,1.13"/><path class="cls-1" d="M136.93,268.89c-1,1.51-2.61,2.57-3.64,4.07-.5.73-.87,1.55-1.38,2.27s-1.34,1.48-1.92,2.29a17,17,0,0,0-1.21,2.25A45.45,45.45,0,0,1,124,287l-1.57,2"/><path class="cls-1" d="M210.95,69a233,233,0,0,1,35.74,16.69c.91.52,2.28,1.12,3.23,1.57a3.42,3.42,0,0,1,2,1.72l1.36,2.27"/><path class="cls-1" d="M124.68,61.14a6.56,6.56,0,0,1,.88,5.37"/><path class="cls-1" d="M133.18,108.6a11.46,11.46,0,0,0,2.61-.67"/><path class="cls-1" d="M122.62,108.57l1.32.56"/><path class="cls-1" d="M114.34,107.25a1,1,0,0,1,1.14.34"/><path class="cls-1" d="M106.4,107.05l.2.75"/><path class="cls-1" d="M149.8,92.46A84.46,84.46,0,0,0,182,83.95l8.33,17.44,5.17,10.83c2.92,6.13,5.83,12.28,8.19,18.66a1.65,1.65,0,0,1,.15.94,1.67,1.67,0,0,1-.8.88q-7.66,5.15-15.38,10.22"/><path class="cls-1" d="M194.47,68.31c8.81,17.07,19,31.77,30.29,48.72,3.39,5.65,5.65,11.31,9.48,17"/><path class="cls-1" d="M204.6,79.82l6.59-.52a21.56,21.56,0,0,0,3.45-.46c.66-.16,1.31-.39,2-.61l4.27-1.49"/><path class="cls-1" d="M204.49,71.46q.74,2.83,1.68,5.6"/><path class="cls-1" d="M72.13,225.56c4.52-37.31,9-75.75,12.37-112.6a21.53,21.53,0,0,1-.51,6.56c0-2.19.27-4.38.51-6.56,5.71.9,11.46,1.42,17.22,1.92"/><path class="cls-1" d="M72.13,225.56"/><path class="cls-1" d="M140.34,119.57c4.34.47,19.77.57,24.12,1-3.35,29.28-5.78,59.62-7.49,89-.48,8.33-.85,16.67-.83,25-13.52-.82-27-2.13-40.47-3.63-14.14-3.21-30-.95-43.53-5.47"/><path class="cls-1" d="M168.88,57.82c.46-4.17-.51-8.34-1.46-12.42L164,31.08"/><path class="cls-1" d="M157.7,213c5.84-11.8,14.73-21.84,21-33.41,4.88-9,8.2-18.92,14.53-27"/><path class="cls-1" d="M125.12,249.43a54.07,54.07,0,0,0,6.64-7.88l5-6.81"/></g><g id="Слой_3" data-name="Слой 3"><path class="cls-2" d="M60.77,120.71c4.55.58,9.13,1,13.71,1.32"/><path class="cls-2" d="M14,105.87c13,6.47,25,11.47,39.35,13.67"/><path class="cls-2" d="M19.47,128.8C36,134,52.76,139.19,70.05,140.62"/><path class="cls-2" d="M6,200.71c10.12,7,22.88,8.46,35.07,9.76l21.4,2.27"/><path class="cls-2" d="M27.34,148.38a200.64,200.64,0,0,0,41.18,7.7"/><path class="cls-2" d="M.5,138.32q9.21,4.2,18.8,7.49"/><path class="cls-2" d="M24,168.26a156.67,156.67,0,0,0,41.47,6.68"/><path class="cls-2" d="M48.14,193.32q8.4.87,16.86.93"/><path class="cls-2" d="M27.48,189.94q7.25,1.63,14.62,2.65"/></g><g id="Слой_4" data-name="Слой 4"><text class="cls-3" transform="translate(85.91 166.28) rotate(5.27)">Серти-<tspan x="0" y="25.44">фикат</tspan></text></g></g></svg>