<svg xmlns="http://www.w3.org/2000/svg" viewBox="0 0 245.74 291.82"><defs><style>.cls-1,.cls-2,.cls-3{fill:none;stroke:#2F71D9;}.cls-1,.cls-2{stroke-linecap:round;stroke-linejoin:round;}.cls-1{stroke-width:1.5px;}.cls-2{stroke-width:2px;}.cls-3{stroke-miterlimit:10;}</style></defs><title>Ресурс 1</title><g id="Слой_2" data-name="Слой 2"><g id="Слой_2-2" data-name="Слой 2"><path class="cls-1" d="M19.07,228c12.29-8.33,27-5.38,38.83-14.23,11.8-5.9,25.07-7.62,38.34-5.9,20.52-1.11,32.19,11.07,59,11.8,14.81.4,36.86-10.32,42.76,5.9,1.47,2.95-1.47,7.37-5.9,8.85-13.27,4.42-26.54,4.42-41.29,5.9-5.9,1.47-10.32,5.9-16.22,8.85-2.95,1.47-5.9,0-9.21-.55"/><path class="cls-1" d="M.75,291.07c17.33-10.91,33.55-21.23,54.2-27.13,28-5.9,56,1.47,84,0,7.65-.64,9.7-.48,13.53-2.4,3.33-1.66,23.17-16.3,28.77-23.42"/><path class="cls-1" d="M196.65,219c2.26-3.12,3.06-7,4.83-10.47.42-.82.9-1.6,1.29-2.43a24.36,24.36,0,0,0,1-2.61,100.38,100.38,0,0,0,4.27-17.42c.27-1.79.4-3.89-.9-5.15a5.1,5.1,0,0,0-2.38-1.13,18.24,18.24,0,0,0-4.77-.54,8.18,8.18,0,0,0-4.1,1,9.13,9.13,0,0,0-2.44,2.43,34.87,34.87,0,0,0-5.53,11,29.52,29.52,0,0,1-1.75,5.18,24.45,24.45,0,0,1-2.25,3.33,67.9,67.9,0,0,0-7.85,13.57"/><path class="cls-1" d="M155,217.3c3.37-2.34,6.82-4.75,9.14-8.13a49.16,49.16,0,0,0,3.05-5.66,54.74,54.74,0,0,1,9.37-13.16,6.61,6.61,0,0,0,1.21-1.51,8,8,0,0,0,.53-1.66c1.05-4,3.84-7.38,6.64-10.47a26.51,26.51,0,0,1,5.73-5.15,9.8,9.8,0,0,1,7.4-1.4,7.63,7.63,0,0,1,5.32,8.67"/><path class="cls-1" d="M140.2,216.48c4.53-2,8-5.9,10.78-10s5.06-8.57,8-12.55c1.49-2,3.16-3.84,4.6-5.87,3.21-4.51,5.28-9.86,9.12-13.84a12,12,0,0,1,7-3.89c2.7-.31,5.69,1,6.78,3.47"/><path class="cls-1" d="M117.65,210.32A23.1,23.1,0,0,0,126.6,205c2.61-2.33,4.92-5,7.42-7.41,3.5-3.41,7.36-6.41,10.88-9.79a93.41,93.41,0,0,1,7.06-6.64,16.5,16.5,0,0,1,8.78-3.78c1.61-.11,3.41.21,4.39,1.48s.8,3.42.35,5.15"/><path class="cls-1" d="M183.34,227.89a50.87,50.87,0,0,1-.44,6.74c2.83-.95,6-.62,8.74-1.81a14.46,14.46,0,0,0,3.69-2.55,6.79,6.79,0,0,0,1.74-2,6.26,6.26,0,0,0-.17-4.68,2.19,2.19,0,0,0-.35-.71,2.06,2.06,0,0,0-.9-.54,12.73,12.73,0,0,0-8.14.15c-.75.23-1.48.51-2.23.73a10.88,10.88,0,0,1-1.18.29,3.27,3.27,0,0,0-1,.15c-.47.3.06,1.35.13,1.85A17.12,17.12,0,0,1,183.34,227.89Z"/></g><g id="Слой_6" data-name="Слой 6"><path class="cls-1" d="M150.2,242a4.7,4.7,0,0,1-.2,3.77"/><path class="cls-1" d="M192.63,200.65a2.89,2.89,0,0,0-1.54-.76,10,10,0,0,0-3.9-.49"/><path class="cls-1" d="M180.19,190a3,3,0,0,1,2.3,1.84"/><path class="cls-1" d="M52.74,252.82c6.77-4.89,11.88-9.13,20.62-9.57,8.09-.4,17.62,3.26,25.43.78"/><path class="cls-1" d="M132.2,239.41a63.6,63.6,0,0,0,9-2"/><path class="cls-1" d="M129.91,207.46l6.64.52"/><path class="cls-1" d="M150.32,188.81a3,3,0,0,0,2.21,1.13"/><path class="cls-1" d="M165.77,211.69a3.62,3.62,0,0,0,2.48,1.07"/><path class="cls-1" d="M154.72,209.3l3.32.44"/><path class="cls-1" d="M166.34,186.51l3.26.77"/><path class="cls-1" d="M168.14,224a14.56,14.56,0,0,0-1.55,6.12"/><path class="cls-1" d="M56.83,223.51A11.35,11.35,0,0,1,62,222.3"/><path class="cls-1" d="M97.78,208c-5.78-.5-7.81,1.22-9.19,3.88"/><path class="cls-1" d="M165.19,211.55l1.22.5"/></g><g id="Слой_5" data-name="Слой 5"><path class="cls-1" d="M175.47,54.56,151.82,56.1c-4.42.29-8.85.58-13.25,1.1-5.51.65-11.22,1.76-15.6,5.15s-7,9.71-4.53,14.69A3.46,3.46,0,0,0,120,78.81a4.21,4.21,0,0,0,1.82.2l34.65-1.34a7.5,7.5,0,0,1,6.58,2.21l12.8,10.4c4,3.29,8.21,6.64,13.15,8.28,4.09,1.35,8.56,1.47,12.5,3.2,3.63,1.6,6.55,4.45,9.33,7.28,9.81,10,25.62,28.38,34.12,39.51"/><path class="cls-1" d="M164.2,22.59,162,27.45a15.14,15.14,0,0,1-2.08,3.65c-2.36,2.78-6.31,3.47-9.92,4l-8.23,1.17c-3.09.44-4.24,3.77-6.27,6.14l-7.44,8.72a9.17,9.17,0,0,0-1.78,2.66c-.73,2-.07,4.27-1,6.17-1,2.1-3.48,3-5.1,4.63s-2.15,3.66-3.35,5.41-3.47,3.19-5.4,2.3a3.92,3.92,0,0,1-2-3.08,10.67,10.67,0,0,1,.37-3.8C112.9,51.93,119,39.34,126,27.45a24.82,24.82,0,0,1,3.38-4.78,23.13,23.13,0,0,1,3.7-2.95,103.1,103.1,0,0,1,30.18-14"/><path class="cls-1" d="M109.44,65.76a12.84,12.84,0,0,1-3.21-4.17,12.31,12.31,0,0,1-.36-5.91,143.24,143.24,0,0,1,5.3-26,6.38,6.38,0,0,1,.7-1.69,6.34,6.34,0,0,1,1.74-1.59A105.67,105.67,0,0,1,147.88,10.6"/><path class="cls-1" d="M158.14,6.67a30.46,30.46,0,0,1,11.11-5.4,10.74,10.74,0,0,1,6-.14,12.32,12.32,0,0,1,4.35,3,118.56,118.56,0,0,1,14.57,16.74"/><path class="cls-1" d="M125.09,18.29c-3.42.07-6.79-.78-10.2-1.07s-7.1.06-9.77,2.2c-1.72,1.37-2.75,3.78-3.91,5.65Q97,31.84,93.51,39c-2,4.13-.17,9.62.17,14.21"/><path class="cls-1" d="M106.62,50.1a27.12,27.12,0,0,1-.49-7.11,9.14,9.14,0,0,1,3.09-6.24"/><path class="cls-1" d="M93.63,51.91c-.24,1,.39,1.9.79,2.81a16,16,0,0,1,.89,3.76A24.86,24.86,0,0,0,98,66c1.27.78,2,2.36,3.4,2.84a3.48,3.48,0,0,0,3.45-1,10.25,10.25,0,0,0,1.92-3.25"/><path class="cls-1" d="M95.23,52.74c1.8-.63,3.81.66,4.66,2.36a11.94,11.94,0,0,1,.8,5.6,3.9,3.9,0,0,0-2.57,3"/><path class="cls-1" d="M96.93,30.76c-3.31-.14-6.64.26-9.93-.08s-6.71-1.57-8.66-4.24a3.39,3.39,0,0,1-.77-2c0-1.32,1.22-2.31,2.4-2.91a21.54,21.54,0,0,1,6.79-1.78,86.85,86.85,0,0,1,17.35-.58"/><path class="cls-1" d="M132,48l1.29,2.68,1.26,2.62a10.09,10.09,0,0,0,2.18,3.33"/><line class="cls-2" x1="161.51" y1="77.67" x2="167.51" y2="77.67"/><path class="cls-1" d="M194,20.68c18.16,19.52,36.46,37.54,48.62,56.65"/><path class="cls-1" d="M120.41,71.5A7,7,0,0,1,122,67.18a2,2,0,0,1,.51-.46,2.21,2.21,0,0,1,.67-.21,34.74,34.74,0,0,1,7.87-.68,3.57,3.57,0,0,1,1.79.38,3.09,3.09,0,0,1,.94,1,15.49,15.49,0,0,1,1.79,5,2.58,2.58,0,0,1,.06,1.26,2.52,2.52,0,0,1-1.5,1.37,25.3,25.3,0,0,1-9.65,2.41c-1.23.06-2.81.37-3.57-.73C120.38,75.68,120.39,72.52,120.41,71.5Z"/><path class="cls-1" d="M113.44,73.62l1,7c.2,1.46.47,3.06,1.6,4a4.18,4.18,0,0,0,3.51.66,6.85,6.85,0,0,0,5.17-5.13"/></g><g id="Слой_9" data-name="Слой 9"><path class="cls-1" d="M115.45,71.31c-2.69,4.18-4.44,9.14-4,14.09s3.36,9.83,7.94,11.77a3.06,3.06,0,0,0,1.38.31,3,3,0,0,0,1.62-.78,12,12,0,0,0,3.7-6.38,35.61,35.61,0,0,0,.78-7.44,7.46,7.46,0,0,0-.32-3"/><path class="cls-1" d="M116.25,73c-.3,1.84-2,3.12-2.79,4.78a11.39,11.39,0,0,0-.85,4.78c-.11,3.37-.09,7.1,2.17,9.6A13.25,13.25,0,0,0,119.23,95a5.31,5.31,0,0,0,2,.63,3.61,3.61,0,0,0,3.13-2.19,10.61,10.61,0,0,0,.78-3.94l.31-4.54c.12-1.74.2-3.61-.74-5.08"/></g><g id="Слой_7" data-name="Слой 7"><path class="cls-1" d="M158.08,38a43.14,43.14,0,0,1-5.75,15.76"/><path class="cls-1" d="M138.49,43.72a9.27,9.27,0,0,0,5.05-.33,13.65,13.65,0,0,0,2-1.3,14.17,14.17,0,0,1,7-2.51"/><path class="cls-1" d="M102.06,40.82a1.7,1.7,0,0,1,1.14,1.05"/><path class="cls-1" d="M166.86,15.44a27.52,27.52,0,0,0-3.68,8.13"/><path class="cls-1" d="M173.23,17a5,5,0,0,1-2.58,4.44"/><path class="cls-1" d="M177.91,23.57l.82-2.17"/><path class="cls-1" d="M135.69,22.12a2.9,2.9,0,0,1-1.82,2.22"/><path class="cls-1" d="M116.18,28a4,4,0,0,1-1.74,2"/><path class="cls-1" d="M110,20.22l-1.83.39"/><line class="cls-2" x1="108.51" y1="57.67" x2="110.51" y2="57.67"/><path class="cls-1" d="M97.84,46.39"/><path class="cls-1" d="M95.61,44.25"/><path class="cls-1" d="M196.63,75.32a20.58,20.58,0,0,1-10.82,5.44"/><path class="cls-1" d="M168.8,53.51c4.06-1.67,6.9-5.33,9.53-8.85"/><path class="cls-1" d="M167.29,51.9c2-3.89,3.95-7.89,4.41-12.23.15-1.35.14-2.71.31-4.05a16,16,0,0,1,4.24-8.95"/><path class="cls-1" d="M170.47,21a16.7,16.7,0,0,1-3,6.11c-1.15,1.47-2.54,2.75-3.55,4.32-.41.64-.83,1.39-1.56,1.58"/><path class="cls-1" d="M139.36,29.94c1.23.76,3.76,3.7,2.4,6.31"/><path class="cls-1" d="M124.45,48.62a15.26,15.26,0,0,0,2.34,3.23"/></g><g id="Слой_8" data-name="Слой 8"><rect class="cls-3" x="116.01" y="145.17" width="8" height="46"/><path xmlns="http://www.w3.org/2000/svg" fill="#2F71D9" d="M121.22,126.27a2.21,2.21,0,0,0-.78-.1,2.36,2.36,0,0,0-.7,0,3.38,3.38,0,0,0,0,1.27,2,2,0,0,0,.72.06,2.37,2.37,0,0,0,.76-.09.57.57,0,0,0,.37-.58A.61.61,0,0,0,121.22,126.27Z"/><path xmlns="http://www.w3.org/2000/svg" fill="#2F71D9" d="M120.37,124.69q1.08,0,1.08-.62a.56.56,0,0,0-.43-.57,3,3,0,0,0-.79-.08q-.54,0-.54.08t0,.29q0,.19,0,.29,0,.5.09.56A2.08,2.08,0,0,0,120.37,124.69Z"/><path xmlns="http://www.w3.org/2000/svg" fill="#2F71D9" d="M136.63,110.71l-4.2-12.44a13.3,13.3,0,0,0-25.2,0L103,110.71a21.34,21.34,0,0,0,0,13.64l5.71,16.85a6.62,6.62,0,0,0,6.34,4.47h9.48a6.62,6.62,0,0,0,6.34-4.47l5.71-16.89A21.22,21.22,0,0,0,136.63,110.71Zm-8.26,5q.09-2,.09-2.67t0-1.61q0-1.08,0-1.61,0-.11.12-.11l.47,0,.47,0,.46,0,.46,0q.15,0,.15.11,0,.54-.06,1.61T130.4,113q0,.59,0,1.78t0,1.78,0,.13l-.13,0a7.49,7.49,0,0,1-.87,0,6.38,6.38,0,0,1-.93,0q-.15,0-.15-.16Q128.33,116.65,128.37,115.68Zm-1-6q.1,0,.1.16,0,.57,0,1.72t0,1.73v3.31q0,.14-.15.14h-.73l-.39,0-.39,0q-.09,0-.22-.17l-1.63-2.16q-.35-.47-1.06-1.38l-.08-.06a.14.14,0,0,0,0,.11q0,.58,0,1.75t0,1.75q0,.18-.14.18h-1.74q-.15,0-.15-.16,0-.54.05-1.64t.05-1.64q0-.58,0-1.73t0-1.72.2-.11q.29,0,.72,0l.4-.07a2.39,2.39,0,0,1,.4,0s.1.06.19.17l1.87,2.57.76,1q.13.16.22.16s.07-.13.07-.39,0-.88-.06-1.59-.06-1.24-.06-1.59q0-.19.11-.19l.91,0Zm-11.8-14h8.28c1.08,0,2,.42,2,1.5s-.88,1.5-2,1.5h-8.28c-1.08,0-2-.42-2-1.5S114.45,95.67,115.53,95.67Zm-6.32,20.91q0-.55.05-1.65t.05-1.65q0-.58-.05-2.19,0-.42,0-1.24v-.09q0-.1.21-.1l.83,0,.83,0s.09.07.16.21l1.47,3.22q.16.33.26.33s.12-.13.24-.38q.51-1.06,1.5-3.18.09-.2.19-.2l.44,0,.44,0,.38,0,.38,0q.15,0,.15.12,0,.59,0,1.77t0,1.77q0,.55,0,1.64t0,1.64q0,.16-.15.16h-1.78q-.15,0-.15-.18,0-.51,0-1.52t0-1.52,0-.16a14.38,14.38,0,0,0-.67,1.55l-.72,1.78a.21.21,0,0,1-.13.14h-.2q-.26,0-.31-.1-.27-.55-.71-1.61t-.71-1.61l0-.06a.24.24,0,0,0,0,.15q0,.49,0,1.48t0,1.48q0,.18-.14.18h-1.68q-.1,0-.12,0A.21.21,0,0,1,109.21,116.58Zm7.38,12.49h-1.78q-.15,0-.15-.18,0-.51,0-1.52t0-1.52,0-.16a14.43,14.43,0,0,0-.67,1.55L113.3,129a.21.21,0,0,1-.13.14H113q-.26,0-.31-.1-.27-.55-.71-1.61t-.71-1.61l0-.06a.24.24,0,0,0,0,.15q0,.49,0,1.48t0,1.48q0,.18-.14.18h-1.68q-.1,0-.12,0a.21.21,0,0,1,0-.11q0-.55.05-1.65t.05-1.65q0-.58-.05-2.19,0-.42,0-1.24v-.09q0-.1.21-.1l.83,0,.83,0s.09.07.16.21l1.47,3.22q.16.33.26.33s.12-.13.24-.38q.51-1.06,1.5-3.18.09-.2.19-.2l.44,0,.44,0,.38,0,.38,0q.15,0,.15.12,0,.59,0,1.77t0,1.77q0,.55,0,1.64t0,1.64Q116.74,129.07,116.59,129.07Zm1-12.5q0,.08,0-.88.09-2,.09-2.67t0-1.61q0-1.08,0-1.61,0-.11.12-.11l.47,0,.47,0,.46,0,.46,0q.15,0,.15.11,0,.54-.06,1.61t-.06,1.61q0,.59,0,1.78t0,1.78,0,.13l-.13,0a7.49,7.49,0,0,1-.87,0,6.38,6.38,0,0,1-.93,0Q117.61,116.69,117.61,116.57ZM123,128.43a3.1,3.1,0,0,1-2.31.7H120a17,17,0,0,1-2.21-.08q-.15,0-.15-.16,0-.54.06-1.63t.06-1.63q0-.58-.06-2.19,0-.41-.06-1.24v-.07q0-.1.16-.12t1.16,0h1.87a3.9,3.9,0,0,1,1.82.4,1.74,1.74,0,0,1,.78,1.61,1.32,1.32,0,0,1-.18.63,2.62,2.62,0,0,1-.34.47,1.21,1.21,0,0,1-.19.19s0,.06.13.11a1.36,1.36,0,0,1,.55.64,2,2,0,0,1,.18.83A2.14,2.14,0,0,1,123,128.43Zm7.72.64a5.78,5.78,0,0,1-.93,0,6.36,6.36,0,0,1-.92,0,.27.27,0,0,1-.22-.23,1.92,1.92,0,0,0-.27-.77,11.08,11.08,0,0,0-1.35,0,4,4,0,0,0-.91,0,1.38,1.38,0,0,0-.19.54q-.1.42-.23.45a8.46,8.46,0,0,1-1.15,0q-.77,0-.77-.15t1.14-3.21q1.23-3.33,1.34-3.66t.14-.19l.42,0,.42,0,.4,0,.39,0q.1,0,.18.17.25.53,1.44,3.62t1.2,3.25T130.75,129.07Z"/><path xmlns="http://www.w3.org/2000/svg" fill="#2F71D9" d="M127.31,124.37q-.11.22-.36,1a5.2,5.2,0,0,0-.27.92q0,.09.3.1h.51q.33,0,.37-.08a.2.2,0,0,0,0-.07,4.89,4.89,0,0,0-.23-.91A7.12,7.12,0,0,0,127.31,124.37Z"/><path class="cls-3" d="M119,190.67V181s1.16-1.06,1.19-1.87a.61.61,0,0,0-.18-.41c-.11-.11-.31-.13-.45-.2-.44-.25-.28-.93,0-1.32s1-.8.9-1.29c-.13-.92-1.5-1.16-1.5-2.08v-5s.89,0,1.21-.39a1.18,1.18,0,0,0-.14-1.44c-.23-.27-.67-.52-.58-.86a1.76,1.76,0,0,1,.29-.45,1.09,1.09,0,0,0-.26-1.31,1.7,1.7,0,0,1-.52-1.24V159s.34-.86.45-.86h3"/><path class="cls-3" d="M142.09,100.55,148.93,97"/><path class="cls-3" d="M173.41,113.93"/><path class="cls-3" d="M148.83,112.59"/><path class="cls-3" d="M91.39,135.29a6.7,6.7,0,0,0,2.69-3.14"/><path class="cls-3" d="M98.46,101.55c-2.22-2.75-5.17-2.75-9.59-2.75-2.95,0-4.42-4.42-8-3.62"/><path class="cls-3" d="M94,118a174.36,174.36,0,0,0-17.56,2.65"/><path class="cls-3" d="M139.77,131.16l8.77,4.82"/><path class="cls-3" d="M142.43,116c1.37.05,2.5-1,3.83-1.37,1.73-.42,3.46.51,5.15,1.07a12.63,12.63,0,0,0,5.36.55,1.4,1.4,0,0,0,.81-.28,3.7,3.7,0,0,0,.43-.64,2.29,2.29,0,0,1,2.2-.59,12.65,12.65,0,0,1,4.79,1.61"/></g></g></svg>
