<svg xmlns="http://www.w3.org/2000/svg" viewBox="0 0 370.02 77.21"><defs><style>.cls-1{fill:#ffffff;}</style></defs><title>cbslogo</title><g id="Слой_2" data-name="Слой 2"><g id="Layer_1" data-name="Layer 1"><polygon class="cls-1" points="154.15 66.4 155.3 66.3 155.58 66.02 155.58 54.3 154.15 54.3 154.15 53.53 157.15 52.57 158.03 52.57 158.03 66.02 158.33 66.3 159.46 66.4 159.46 67.29 154.15 67.29 154.15 66.4"/><path class="cls-1" d="M109.77,17.54h-1.35V15.37l-.2-.36a4.06,4.06,0,0,0-1.47-.3c-3,0-5.54,3.1-5.54,7a5.07,5.07,0,0,0,.88,3.06,3.71,3.71,0,0,0,3.06,1.34,4.29,4.29,0,0,0,1.08-.12l.38-.36.92-2.47h1.33l-.63,3.45a12.55,12.55,0,0,1-3.9.72c-1.89,0-5.86-.76-5.86-5.66a8.06,8.06,0,0,1,8.23-8.22,12,12,0,0,1,3.68.68Z"/><path class="cls-1" d="M115.8,13.94a1.43,1.43,0,0,1-1.51,1.52,1.2,1.2,0,0,1-1.3-1.29,1.46,1.46,0,0,1,1.54-1.51,1.19,1.19,0,0,1,1.27,1.29M115,17.31,113.75,24a7.41,7.41,0,0,0-.1.86c0,.74.32,1.06,1,1.06a7.9,7.9,0,0,0,1.39-.28v.81a10.74,10.74,0,0,1-3.33.76,1.4,1.4,0,0,1-1.55-1.52,6.68,6.68,0,0,1,.18-1.35L112.36,19l-1.63-.24v-.69l3.4-.78Z"/><path class="cls-1" d="M121.56,15.16l-.46,2.55h2.73v1.15h-2.95L120,23.7a8,8,0,0,0-.12,1.05c0,1.12.74,1.24,1.16,1.24a5.76,5.76,0,0,0,1.75-.36v.8c-.24.08-1.25.42-2,.6a6.11,6.11,0,0,1-1.53.22,1.72,1.72,0,0,1-1.83-1.87,8.8,8.8,0,0,1,.14-1.25l1-5.2h-1.31V18.2l1.71-.85,1.32-2.19Z"/><path class="cls-1" d="M126.5,17.29a1.31,1.31,0,0,1,.78.56,6,6,0,0,1,.74,2.51l.7,4.34c1.07-2.83,1.45-3.76,3-7.39h.62l1.58.52v.54l-1.18.66a19.38,19.38,0,0,0-2.23,4.26,23.67,23.67,0,0,1-3,5.54,8.33,8.33,0,0,1-1.78,1.89,3.52,3.52,0,0,1-1.91.72,1.69,1.69,0,0,1-1.7-1.53,1.38,1.38,0,0,1,1.18-1.34l1.33,1.26c1-.16,2.11-1.49,3-3.21h-.76l-1.22-6.31a4.73,4.73,0,0,0-.5-1.49l-1.73-.16V18Z"/><path class="cls-1" d="M102.46,46c.24,0,.58,0,.92,0a4.06,4.06,0,0,0,2.67-.72,2.5,2.5,0,0,0,.72-1.95,2.24,2.24,0,0,0-1-2.09,4.53,4.53,0,0,0-2.19-.46c-.12,0-.38,0-1.13,0Zm0-6.29a3.32,3.32,0,0,0,.56,0,3.67,3.67,0,0,0,2.27-.62,2.37,2.37,0,0,0,.73-1.91,2.23,2.23,0,0,0-.73-1.84,3.7,3.7,0,0,0-2.17-.52,5.06,5.06,0,0,0-.65,0Zm2-5.93c1.2,0,4.28.32,4.28,3.09,0,2-1.36,2.79-2.85,3.15v0H106a3.18,3.18,0,0,1,3.5,3.27c0,3.45-3.74,3.83-5,3.83H98.32v-1l1.2-.1.32-.32V35.14l-.32-.27-1.2-.1v-1Z"/><path class="cls-1" d="M114.57,37.22v6.17a2.67,2.67,0,0,0,.44,1.69,1.69,1.69,0,0,0,1.39.54,6.45,6.45,0,0,0,1.77-.32V38.95h-1.29v-.78l2.83-1h.92v8.66l.28.28,1,.1v.9h-3.74V46.06a6.41,6.41,0,0,1-3.4,1.27c-2.3,0-2.65-2.19-2.65-3.41v-5h-1.3v-.78l2.79-1Z"/><path class="cls-1" d="M130.16,40.34H129l-.2-1.5-.24-.22a2.83,2.83,0,0,0-1.34-.34c-.6,0-1.49.22-1.49,1.27,0,.54.34.94,2,1.76A7.06,7.06,0,0,1,130,42.81a1.82,1.82,0,0,1,.42,1.29c0,1.55-.92,3.23-4.13,3.23a13.2,13.2,0,0,1-3.23-.46V43.92h1.22l.22,1.71.2.22a3.58,3.58,0,0,0,1.59.4c1.35,0,1.77-.56,1.77-1.45,0-.56-.18-.9-1.69-1.57-2-.9-3.16-1.54-3.16-3.07,0-2.35,2.56-2.94,4-2.94a9.41,9.41,0,0,1,2.94.47Z"/><path class="cls-1" d="M134.42,32.75a1.47,1.47,0,1,1-1.48,1.48,1.47,1.47,0,0,1,1.48-1.48m1.15,4.52v8.6l.3.28,1.13.1v.9h-5.26v-.9l1.1-.1.28-.28V39h-1.33v-.79l2.83-.93Z"/><path class="cls-1" d="M137.87,46.25l1-.1.28-.28V39h-1.35v-.8l2.85-.93h1v1.18a7.88,7.88,0,0,1,3.5-1.23c2.47,0,2.63,2.55,2.63,3.32v5.34l.26.28,1,.1v.9h-4.9v-.9l.88-.1.28-.28v-4.7c0-1.19-.48-2.23-1.8-2.23a6.94,6.94,0,0,0-1.89.36v6.57l.28.28.87.1v.9h-4.9Z"/><path class="cls-1" d="M156.45,41v-.16c0-1.63-.76-2.57-1.74-2.57s-2.07,1-2.07,2.73ZM159,46.15A8.37,8.37,0,0,1,155,47.33,4.84,4.84,0,0,1,151.33,46,5,5,0,0,1,150,42.35a5.27,5.27,0,0,1,1.53-3.88A4.85,4.85,0,0,1,155,37.22c3.64,0,4.1,2.77,4.1,4.86h-6.51c0,1.65.58,3.69,3.22,3.69A6.07,6.07,0,0,0,159,44.68Z"/><path class="cls-1" d="M167.56,40.34h-1.2l-.2-1.5-.24-.22a2.83,2.83,0,0,0-1.34-.34c-.6,0-1.5.22-1.5,1.27,0,.54.34.94,2,1.76a7.09,7.09,0,0,1,2.37,1.49,1.8,1.8,0,0,1,.42,1.29c0,1.55-.92,3.23-4.13,3.23a13.12,13.12,0,0,1-3.22-.46V43.92h1.21l.22,1.71.2.22a3.61,3.61,0,0,0,1.59.4c1.36,0,1.77-.56,1.77-1.45,0-.56-.18-.9-1.69-1.57-2-.9-3.17-1.54-3.17-3.07,0-2.35,2.57-2.94,4-2.94a9.46,9.46,0,0,1,2.95.47Z"/><path class="cls-1" d="M176.46,40.34h-1.19l-.2-1.5-.24-.22a2.81,2.81,0,0,0-1.33-.34c-.6,0-1.49.22-1.49,1.27,0,.54.34.94,2,1.76a7.12,7.12,0,0,1,2.37,1.49,1.81,1.81,0,0,1,.41,1.29c0,1.55-.92,3.23-4.12,3.23a13.2,13.2,0,0,1-3.23-.46V43.92h1.22l.22,1.71.2.22a3.61,3.61,0,0,0,1.59.4c1.35,0,1.77-.56,1.77-1.45,0-.56-.18-.9-1.69-1.57-2-.9-3.17-1.54-3.17-3.07,0-2.35,2.57-2.94,4-2.94a9.42,9.42,0,0,1,2.95.47Z"/><path class="cls-1" d="M98.92,63.13h1.51l.32,2.39.26.3a5.14,5.14,0,0,0,1.75.31c1.2,0,2.57-.55,2.57-2,0-1.69-2-2.43-2.95-2.87-2.49-1.18-3.19-2.69-3.19-3.89s.76-3.86,4.84-3.86a12,12,0,0,1,3.6.68v3.23H106.2l-.34-2.07-.28-.28a3.6,3.6,0,0,0-1.4-.28,2.8,2.8,0,0,0-1.77.52,1.77,1.77,0,0,0-.64,1.44c0,1,.44,1.57,2.55,2.55a9.39,9.39,0,0,1,2.61,1.51,3.48,3.48,0,0,1,1.1,2.49,3.68,3.68,0,0,1-1.57,3,6.8,6.8,0,0,1-3.89,1,11.39,11.39,0,0,1-3.66-.67Z"/><path class="cls-1" d="M118.33,66.28a7.29,7.29,0,0,1-3.74,1.08,4.78,4.78,0,0,1-3.41-1.27,5,5,0,0,1-1.39-3.62,5.18,5.18,0,0,1,1.53-3.84,5.12,5.12,0,0,1,3.62-1.37,4.18,4.18,0,0,1,2.47.69,1.85,1.85,0,0,1,.79,1.49,1.35,1.35,0,0,1-1.45,1.38,2,2,0,0,1-1.15-.38V58.31a2.26,2.26,0,0,0-.5-.06c-2.13,0-2.57,2.83-2.57,3.75a4.29,4.29,0,0,0,.84,2.8,2.65,2.65,0,0,0,2.21,1,5.35,5.35,0,0,0,2.75-.93Z"/><path class="cls-1" d="M123.23,52.46v6a7.57,7.57,0,0,1,3.52-1.23c1.29,0,2.63.73,2.63,3.32V65.9l.26.28,1,.1v.9h-4.9v-.9l.88-.1.28-.28V61.14c0-1.15-.52-2.17-1.79-2.17a6.7,6.7,0,0,0-1.91.36V65.9l.3.28.86.1v.9h-4.9v-.9l1-.1.28-.28V54.17h-1.43v-.78l2.93-.94Z"/><path class="cls-1" d="M134.92,59.49a6.12,6.12,0,0,0-.54,2.79c0,1.41.44,4,2.31,4S139,63.67,139,62.33c0-1.11-.36-4-2.35-4a2,2,0,0,0-1.78,1.17m5.28-1.07a4.93,4.93,0,0,1,1.59,3.88c0,4-2.93,5.06-5.12,5.06-2.75,0-5-1.55-5-5,0-3.64,2.44-5.1,5.22-5.1a5,5,0,0,1,3.35,1.18"/><path class="cls-1" d="M146.55,59.49a6.09,6.09,0,0,0-.54,2.79c0,1.41.44,4,2.31,4s2.35-2.61,2.35-3.94c0-1.11-.36-4-2.35-4a2,2,0,0,0-1.77,1.17m5.28-1.07a4.93,4.93,0,0,1,1.6,3.88c0,4-2.93,5.06-5.12,5.06-2.74,0-5-1.55-5-5,0-3.64,2.45-5.1,5.22-5.1a5,5,0,0,1,3.35,1.18"/><path class="cls-1" d="M72.51,44.77c2.84-.23,6,.48,7,2.7.41.88.07,1.53-.38,1a3.44,3.44,0,0,0-2.54-1.17S79,48.2,79.77,50a2,2,0,0,1-.11,1.74c-.24.47-.64,0-.83-.46a11.25,11.25,0,0,0-2-2.81c-.59-.55-2.06-1.39-2.3-1.69a2.37,2.37,0,0,0-1.58-1l.33.56a2.45,2.45,0,0,1,.27,1.11,1.55,1.55,0,0,1-.28.86,1.91,1.91,0,0,1-.31.39c-.81-.5-1.6-1-2.36-1.56a6.37,6.37,0,0,0-2.13-4.3c-.79-.72-5.22-3.54-5.07-8.22a1.85,1.85,0,0,1,2.81-1.56c-.66-.79-1.38-.77-2-1.06s-.66-.49-.65-.93.43-.67,1-.4a10.38,10.38,0,0,0,4.85,1,6.16,6.16,0,0,1-2.38,1.72A5.87,5.87,0,0,0,70,36a3.33,3.33,0,0,1-1.18.22,3,3,0,0,1-2.17-1.32c-.11-.12-.63-.87-1.14-.33s0,1.47,2.3,4.11A13.38,13.38,0,0,0,79,42.38a4.29,4.29,0,0,1-.69.38c-1.95.79-3.7.39-5.71.18-.91-.09-1.83,0-1.77.89s1.64.95,1.64.95m3.2,4.31c0-.67.57-.47.81-.21a9.5,9.5,0,0,1,2.22,3.45,1.71,1.71,0,0,1-.24,1.38c-.32.34-.6-.09-.67-.39a9.68,9.68,0,0,0-1.68-2.86,1.9,1.9,0,0,1-.43-1.36m.49,5.13a4.19,4.19,0,0,1-2.44.91c-1.16,0-1.48-.36-1.46-1,0-.4.44-.76,1-1.12A5.47,5.47,0,0,0,75,51.5a5.43,5.43,0,0,1,1.24,2.71m1.62,2.57c-1.41,2.37-4.55,4.17-10.15,4-2.16-.07-4-.83-5.63-.88A4.41,4.41,0,0,0,61,60a8.39,8.39,0,0,1,1.45-1.33,2.31,2.31,0,0,1,1.35-.36A4.66,4.66,0,0,1,66,59a2.85,2.85,0,0,0-1.12-2,2.32,2.32,0,0,1,.65-.08c1,0,1.71.83,2.61,1.9l.1.1.23.23.13.1.19.14.14.07.17.08.14,0,.13,0h.08a.83.83,0,0,0,.55-.19.74.74,0,0,0,.24-.48c0-.06,0-.09,0-.09a1.09,1.09,0,0,0,0-.16,1.32,1.32,0,0,0,0-.17,1.36,1.36,0,0,0-.38-.54,2.36,2.36,0,0,0-.48-.36,5.51,5.51,0,0,1-1.5-1.15,3,3,0,0,1-.22-.3l-.1-.14c-.06-.1-.11-.22-.16-.32s0-.11-.07-.16a2.28,2.28,0,0,1-.08-.26c0-.09-.06-.18-.09-.28s0-.1,0-.15-.05-.3-.06-.46v0a5.28,5.28,0,0,1,0-.65h0v0a8.62,8.62,0,0,0,0-1v0l0-.25a3,3,0,0,0-.13-.57c-.11-.41-.46-.76-.79-.75h0a.58.58,0,0,0-.48.24,1.12,1.12,0,0,0-.16.51h0a2.08,2.08,0,0,0,0,.29l0,0L65,52,65,51.9a1.75,1.75,0,0,1-.21-.2l0,0a1.69,1.69,0,0,1-.41-1.18c.06-1.1.65-1.37,1.19-1.4h0c.53,0,.82.38,1.09.82.1.14.2.31.29.45l.1.15.07.08a.76.76,0,0,0,.21.19h0a.66.66,0,0,0,.32.12h.06l.16,0h0a.71.71,0,0,0,.21-.12l0,0a1,1,0,0,0,.21-.36,1.6,1.6,0,0,0,.09-.45v0A10.89,10.89,0,0,0,68,47.6,10.42,10.42,0,0,1,67.8,46a9.72,9.72,0,0,0-.55-3.51,6.07,6.07,0,0,1,2.93,5.32c0,1.81-1,3.25-1.06,5.37-.08,2.62,1.18,4.59,4.07,4.68a4.26,4.26,0,0,0,3.32-1.41,6.44,6.44,0,0,1-3.3.93,3.57,3.57,0,0,1-3.57-3.78c.08-2.7,2.76-3.26,4-5A2.11,2.11,0,0,0,74,47.47a3.22,3.22,0,0,0-.08-.73,2.72,2.72,0,0,1,.93,2.34c-.06,2-1.4,2.85-2.46,3.55a2.1,2.1,0,0,0-1,1.64c0,1,.76,1.73,2,1.76,1.63,0,4.91-.65,6.1-3a8,8,0,0,1-1.67,3.81M71,64.09a.06.06,0,0,1,0,0,3,3,0,0,0,.09-.59s0,0,0-.06a1.47,1.47,0,0,0-.09-.5.6.6,0,0,0-.51-.34h0a1.57,1.57,0,0,0-.67.19l-.13.06a6.55,6.55,0,0,1-3.2.91h-.1c-1.78-.1-2.63-1.4-3.53-2a12.69,12.69,0,0,0-1.48-.91c-.19-.09-.35-.17-.49-.23A3.55,3.55,0,0,1,62,60.41c1.55,0,3.38.81,5.63.88h0c5.62.56,7.53-.6,9.1-2.2-.48,1.07-3.77,5.17-5.74,5m-5.58.47.38.08.11,0,.26,0a1.46,1.46,0,0,1,.58.27A1.76,1.76,0,0,1,66.43,67a2,2,0,0,1-2,.16c-.51-.23-.67-.64-.59-.82.18-.4,1-.31,1.52,0a1.82,1.82,0,0,0,.15-1.79m.73,4.65a5.37,5.37,0,0,1-3.65-.31,13,13,0,0,0-3.67-1.46,4.71,4.71,0,0,0-1-.27l-.36,0a2.76,2.76,0,0,0-.55,0l-.19.05a2,2,0,0,0-1.52,1.88,1.56,1.56,0,0,0,0,.25,2.07,2.07,0,0,1-.16-.54,3.41,3.41,0,0,1,1.08-3,2.86,2.86,0,0,1,2.94-.17c.16.08,1.08.66,1.76,1.16a.61.61,0,0,0,0,.17c.19.5,1.29,1.27,1.52.39,0-.16-.37-.54-.42-.69a2.88,2.88,0,0,1,.18-1.77,1.29,1.29,0,0,1,1.8-.67h0a1.33,1.33,0,0,1,.68.72,2,2,0,0,1,.15.56H64.8l-.28,0h-.07a1.61,1.61,0,0,0-.36,0h0l-.19.06-.06,0-.12.06a.47.47,0,0,0-.11.07l-.06,0a.51.51,0,0,0-.12.12l-.06.08-.07.09a0,0,0,0,1,0,0h0a.66.66,0,0,0-.06.21s0,.07,0,.11a1.28,1.28,0,0,0,.18.76l0,0a1.44,1.44,0,0,0,.52.48,1.2,1.2,0,0,0,.2.11l.18.07a3.68,3.68,0,0,0,2.25-.08,2,2,0,0,0,1.1-2.15A3.13,3.13,0,0,0,67,64.35,3.24,3.24,0,0,1,68.31,64h.09a3.32,3.32,0,0,1-2.21,5.22m-10-.57a.58.58,0,0,1,1.07.32.79.79,0,0,1-.58,1c-.32.05-.53-.19-.6-.61a.93.93,0,0,1,.11-.7m6.91,3.26a9.22,9.22,0,0,1-1.2.78,11.92,11.92,0,0,1-1.29.18,7,7,0,0,1-3.45-.51c.52.72,2.42.94,2.53,1.59.06.36-.08.65-.77.85a1,1,0,0,0-.11-.26,1.57,1.57,0,0,0-.43-.5,2,2,0,0,0-.82-.37c-1.15-.3-2-.65-2.2-1.89v0a1.24,1.24,0,0,0-.17-.46.76.76,0,0,0-.77-.43.45.45,0,0,0-.19.08.86.86,0,0,0-.4.94s0,.1,0,.15a9,9,0,0,1,.42,1.39,2.11,2.11,0,0,1-.06,1.11,2.61,2.61,0,0,0-1.06-.72l0,.27a3.75,3.75,0,0,1-.1.4l-.05.15a1.14,1.14,0,0,1-.11.26l-.07.15a1.19,1.19,0,0,1-.14.18,1,1,0,0,1-.11.16l-.13.13-.15.14-.14.1-.19.12-.19.1-.16.07a2.72,2.72,0,0,1-.39.13l-.14,0-.26.06h-.06c-.19,0-.37,0-.54.06h-.58l-.36,0h0a2.18,2.18,0,0,1-.37-.07h0l-.28-.1-.05,0L48.25,76h0l-.12-.07a1.26,1.26,0,0,1-.19-.15l-.07,0h.57l.17,0,.37,0,.19,0a4,4,0,0,0,2.24-1.35A4.77,4.77,0,0,0,52.17,73c.37-.92.71-1.85,1.06-2.73l.23-.57.09-.2.24-.55c0-.06.05-.11.08-.17l.31-.63v0a9.12,9.12,0,0,1,.74-1.22l0,0a3.93,3.93,0,0,0-.28,2.12,2.52,2.52,0,0,0,.78,1.47,1.8,1.8,0,0,0,1,.43h.08a1.58,1.58,0,0,0,.31,0,1.64,1.64,0,0,0,1.25-2c0-.07,0-.14,0-.22l.16.06.08,0a3.16,3.16,0,0,1,.39.19l.2.14a1.62,1.62,0,0,1,.24.2v0a1.37,1.37,0,0,1,.23.29v0a1.54,1.54,0,0,1,.16.36s0,0,0,0,0,.1,0,.14a1.42,1.42,0,0,1,0,.3,1,1,0,0,1,0,.17,1.82,1.82,0,0,1-.09.39l-.26.58.54-.3a.5.5,0,0,1,.13-.05,1.72,1.72,0,0,1,.35-.09c1-.16,1.95.5,2.86.82m3.33-28.16c-.64-.61-1.37-1.45-1.72-1.85a5,5,0,0,1-1.41-3.25c0-.61.37-.61.64-.1a15.65,15.65,0,0,0,2.19,3.11A3.65,3.65,0,0,1,67,43.2c.18.85-.35.83-.63.55M63.22,25.64V22.46H59.88a2,2,0,0,1-.69-.63,9.66,9.66,0,0,1-.61-1,1.51,1.51,0,0,1,.16-1.43l.62-.17h0a2.67,2.67,0,0,1,3,1.14,23.87,23.87,0,0,1,2,2.9c.84,1.37,2.33,3,4.08,3a1.63,1.63,0,0,0,1.74-1.59c0-.6-1-1.4-1.55.46-.68-1.88.09-2.55,1.09-2.59a2.69,2.69,0,0,1,2.72,2.5,3.51,3.51,0,0,1,0,.38s0,.09,0,.13a3.55,3.55,0,0,1,0,.42l0,.1a4.18,4.18,0,0,1-1.75,2.8,6.73,6.73,0,0,1-3.86,1.21,6.45,6.45,0,0,1-2.08-.31c-.67-.25-1.43-1-.72-1.72.48-.48.93-.1,1.48.07a4.29,4.29,0,0,0,4.22-.84c-3.23.65-5.36-.37-6.37-1.68M51.9,66.81a37.81,37.81,0,0,1-7.19,5.38,26,26,0,0,1-3.11,1.57,27.88,27.88,0,0,1-3.1-1.57C32.68,68.82,21.17,60,20.89,42.69c0-.22,0-.42,0-.64V23.43H62.33V42.06c0,.21,0,.42,0,.64A33.12,33.12,0,0,1,51.9,66.81M13.62,27.32a4.3,4.3,0,0,0,4.23.84c.55-.17,1-.55,1.48-.07.71.71,0,1.47-.72,1.72a6.42,6.42,0,0,1-2.08.31,6.7,6.7,0,0,1-3.86-1.21A4.56,4.56,0,0,1,11,26.58a3.32,3.32,0,0,1-.11-.47.91.91,0,0,1,0-.1c0-.14,0-.27,0-.42s0-.08,0-.13,0-.25,0-.38a2.69,2.69,0,0,1,2.72-2.5c1,0,1.77.71,1.09,2.59-.55-1.86-1.55-1.06-1.55-.46a1.63,1.63,0,0,0,1.74,1.59c1.75,0,3.23-1.67,4.08-3a24.17,24.17,0,0,1,2-2.9,2.67,2.67,0,0,1,3-1.14h0l.82.23a1.72,1.72,0,0,1,0,1.35A10.34,10.34,0,0,1,24,21.84a1.89,1.89,0,0,1-.59.63H20v3.18c-1,1.3-3.14,2.33-6.38,1.68m4.9,14.59c-.35.4-1.08,1.24-1.72,1.85-.28.27-.81.3-.63-.55a3.63,3.63,0,0,1,.94-1.54,16.06,16.06,0,0,0,2.19-3.11c.27-.5.61-.5.63.1a5,5,0,0,1-1.41,3.25m-3.77.93a6.38,6.38,0,0,0-2.12,4.3c-.76.54-1.56,1.06-2.36,1.56a2.24,2.24,0,0,1-.31-.39,1.63,1.63,0,0,1-.28-.86A2.51,2.51,0,0,1,10,46.35l.32-.56a2.36,2.36,0,0,0-1.57,1C8.46,47,7,47.88,6.4,48.44a11.35,11.35,0,0,0-2,2.81c-.19.46-.58.93-.83.46A2,2,0,0,1,3.45,50c.73-1.78,3.15-2.71,3.15-2.71a3.44,3.44,0,0,0-2.55,1.17c-.44.56-.78-.09-.38-1,1-2.22,4.2-2.93,7-2.7,0,0,1.58.06,1.64-.95s-.86-1-1.77-.89c-2,.21-3.75.61-5.7-.18a3.92,3.92,0,0,1-.69-.38,11.94,11.94,0,0,0,5.17-.31,12.07,12.07,0,0,0,6-3.44c2.28-2.64,2.68-3.71,2.3-4.11s-1,.21-1.14.33a3,3,0,0,1-2.17,1.32A3.32,3.32,0,0,1,13.23,36a5.85,5.85,0,0,0,3.06-2.53,6.16,6.16,0,0,1-2.38-1.72,10.37,10.37,0,0,0,4.85-1c.54-.27,1,0,1,.4s-.12.69-.65.93-1.39.28-2,1.06a1.85,1.85,0,0,1,2.81,1.56c.14,4.68-4.29,7.5-5.08,8.22M8.27,51.5A5.44,5.44,0,0,0,9.94,53c.55.37,1,.73,1,1.13,0,.6-.31,1-1.46,1A4.18,4.18,0,0,1,7,54.21,5.34,5.34,0,0,1,8.27,51.5M7.07,50.45a9.68,9.68,0,0,0-1.68,2.86c-.07.31-.35.73-.67.39a1.69,1.69,0,0,1-.24-1.38,9.53,9.53,0,0,1,2.22-3.45c.24-.26.76-.46.82.21a1.92,1.92,0,0,1-.44,1.36M15.41,46a10.34,10.34,0,0,1-.19,1.61,10.46,10.46,0,0,0-.38,2.28v0a1.49,1.49,0,0,0,.09.45,1,1,0,0,0,.21.36l0,0a.73.73,0,0,0,.21.12h0l.16,0h.06a.69.69,0,0,0,.32-.12h0a.87.87,0,0,0,.2-.19l.07-.08a1.5,1.5,0,0,0,.09-.15c.1-.15.2-.31.3-.45.28-.44.56-.79,1.09-.82h0c.54,0,1.14.29,1.19,1.4a1.71,1.71,0,0,1-.4,1.18l0,0a1.82,1.82,0,0,1-.21.2l-.07.06-.27.16,0,0a1.67,1.67,0,0,0,0-.29h0a1.16,1.16,0,0,0-.15-.51.6.6,0,0,0-.47-.24h-.06c-.33,0-.68.34-.79.75a3.92,3.92,0,0,0-.13.57l0,.25v0c0,.29,0,.62,0,1v0h0a6.08,6.08,0,0,1,0,.65v0c0,.16,0,.31-.06.46l0,.15c0,.1-.06.19-.08.28s0,.18-.08.26l-.08.16c0,.11-.1.22-.16.32l-.1.14a2.9,2.9,0,0,1-.22.3,5.52,5.52,0,0,1-1.5,1.15,2.18,2.18,0,0,0-.48.36,1.27,1.27,0,0,0-.38.54.81.81,0,0,0,0,.17,1,1,0,0,0,0,.16s0,0,0,.09a.73.73,0,0,0,.24.48.8.8,0,0,0,.53.19h.09l.13,0,.14,0,.18-.08.13-.07.2-.14.13-.1.23-.23.09-.1c.91-1.08,1.6-1.88,2.62-1.9a2.28,2.28,0,0,1,.64.08,2.84,2.84,0,0,0-1.11,2,4.66,4.66,0,0,1,2.14-.66,2.29,2.29,0,0,1,1.35.36A8.73,8.73,0,0,1,22.18,60a4.46,4.46,0,0,0-1-.08c-1.66.06-3.46.82-5.63.88C10,61,6.81,59.16,5.4,56.78A8,8,0,0,1,3.72,53c1.19,2.4,4.48,3.09,6.1,3,1.29,0,2.08-.81,2-1.76a2.08,2.08,0,0,0-1-1.64c-1.05-.71-2.4-1.5-2.46-3.55a2.71,2.71,0,0,1,.93-2.34,3.08,3.08,0,0,0-.08.73,2.2,2.2,0,0,0,.35,1.14c1.21,1.72,3.9,2.29,4,5A3.57,3.57,0,0,1,10,57.38a6.42,6.42,0,0,1-3.3-.93A4.26,4.26,0,0,0,10,57.86c2.89-.09,4.14-2.06,4.07-4.68-.06-2.12-1-3.56-1.06-5.37A6.07,6.07,0,0,1,16,42.49,9.74,9.74,0,0,0,15.41,46m6.42,14.78a12.29,12.29,0,0,0-1.48.91c-.9.64-1.74,1.93-3.53,2h-.1a6.52,6.52,0,0,1-3.2-.91l-.13-.06a1.54,1.54,0,0,0-.67-.19h0a.59.59,0,0,0-.51.34,1.29,1.29,0,0,0-.09.5s0,0,0,.06a2.68,2.68,0,0,0,.09.59.08.08,0,0,0,0,0c-2,.17-5.26-3.94-5.73-5,1.56,1.61,3.48,2.76,9.1,2.2h0c2.24-.07,4.08-.84,5.62-.88a3.58,3.58,0,0,1,1.13.13c-.15.06-.3.14-.49.23M17.9,66.35c.48-.29,1.34-.38,1.52,0,.08.18-.08.59-.59.82a2,2,0,0,1-2-.16,1.76,1.76,0,0,1-.37-2.14,1.48,1.48,0,0,1,.58-.27l.26,0,.11,0,.39-.08a1.8,1.8,0,0,0,.15,1.79M21,64.9a2.82,2.82,0,0,1,.18,1.77c0,.16-.45.54-.41.69.23.89,1.33.11,1.52-.39a.58.58,0,0,0,.05-.17,20.23,20.23,0,0,1,1.76-1.16,2.84,2.84,0,0,1,2.94.17,3.38,3.38,0,0,1,1.08,3,2.05,2.05,0,0,1-.16.54,1.46,1.46,0,0,0,0-.25,2,2,0,0,0-.32-1.06,1.94,1.94,0,0,0-1.19-.83l-.19-.05a2.83,2.83,0,0,0-.56,0l-.36,0a4.61,4.61,0,0,0-1,.27,12.88,12.88,0,0,0-3.67,1.46,5.38,5.38,0,0,1-3.65.31A3.32,3.32,0,0,1,14.81,64h.09a3.25,3.25,0,0,1,1.34.36,3.1,3.1,0,0,0-.67,1.29,2,2,0,0,0,1.1,2.15,3.67,3.67,0,0,0,2.25.08l.18-.07.21-.11a1.47,1.47,0,0,0,.52-.48l0,0a1.32,1.32,0,0,0,.18-.76.94.94,0,0,0-.07-.31h0l0,0a1.08,1.08,0,0,0-.06-.09l-.06-.08a.57.57,0,0,0-.12-.12l-.06,0-.11-.07-.13-.06-.05,0-.19-.06h0a1.71,1.71,0,0,0-.37,0H18.7l-.28,0h-.05a2.22,2.22,0,0,1,.15-.56,1.35,1.35,0,0,1,.68-.72h0a1.28,1.28,0,0,1,1.8.67M26,69A.58.58,0,0,1,27,68.65a1,1,0,0,1,.11.7c-.08.41-.28.66-.6.61A.79.79,0,0,1,26,69m2.32-2.15A9.48,9.48,0,0,1,29,68l0,0c.11.21.2.42.31.63l.07.17c.08.18.16.36.24.55l.09.2.23.57c.34.89.69,1.82,1,2.73a5,5,0,0,0,.78,1.31,4,4,0,0,0,2.24,1.35l.19,0,.37,0,.17,0h.57l-.06,0-.2.15L35,76h0l-.21.11-.06,0-.28.1h0l-.37.07h0l-.36,0h-.58c-.17,0-.34,0-.53-.06h-.07l-.26-.06-.14,0a3,3,0,0,1-.38-.13L31.5,76l-.19-.1-.19-.12-.14-.1-.15-.14-.14-.13a1.18,1.18,0,0,1-.12-.16,1.45,1.45,0,0,1-.13-.18l-.08-.15a2,2,0,0,1-.11-.26,1.47,1.47,0,0,0,0-.15,3.85,3.85,0,0,1-.09-.4l0-.27a2.63,2.63,0,0,0-1.06.72A2.17,2.17,0,0,1,29,73.44,8.92,8.92,0,0,1,29.38,72a1.56,1.56,0,0,0,0-.15A.87.87,0,0,0,29,71a.49.49,0,0,0-.19-.08.76.76,0,0,0-.77.43,1.2,1.2,0,0,0-.17.46s0,0,0,0c-.22,1.24-1.05,1.59-2.2,1.89a2,2,0,0,0-.82.37,1.59,1.59,0,0,0-.43.5,1.26,1.26,0,0,0-.11.26c-.69-.2-.83-.49-.77-.85.11-.65,2-.87,2.53-1.59a7,7,0,0,1-3.45.51,12,12,0,0,1-1.29-.18,9.19,9.19,0,0,1-1.2-.78c.92-.31,1.86-1,2.87-.82a1.81,1.81,0,0,1,.35.09.46.46,0,0,1,.13.05l.55.3L23.77,71a1.36,1.36,0,0,1-.09-.39,1.12,1.12,0,0,1,0-.17,1.56,1.56,0,0,1,0-.3,1,1,0,0,1,0-.14v0a1.36,1.36,0,0,1,.16-.36s0,0,0,0a1.5,1.5,0,0,1,.23-.29v0a1.2,1.2,0,0,1,.24-.2l.2-.14A3,3,0,0,1,25,68.7l.07,0,.16-.06a1.24,1.24,0,0,0,0,.22,1.64,1.64,0,0,0,1.25,2,1.59,1.59,0,0,0,.31,0h.08a1.76,1.76,0,0,0,1-.43,2.45,2.45,0,0,0,.78-1.47,3.91,3.91,0,0,0-.28-2.12l0,0M.7,38.07c.09,0,3.51,2.41,4.06,1.43C5,39,4,38.21,3.83,37.77A3.35,3.35,0,0,1,4,34.34c.53-.7,2-1.74,1.9-2.6a1.63,1.63,0,0,1,1.24,2.06c-.09.71-.95,1.56-1,2a2.38,2.38,0,0,0,0,.4s0,.07,0,.11,0,.15,0,.22h0a1.6,1.6,0,0,0,.29.62l.28.37L6.87,37A4.84,4.84,0,0,1,8,35.17L8.13,35,8.2,35a1.79,1.79,0,0,1,1.24-.31l.07,0a1.07,1.07,0,0,1,.93.8,1.89,1.89,0,0,1,.08.52A2.07,2.07,0,0,0,10,36a1.78,1.78,0,0,0-1.2.61,1.89,1.89,0,0,0-.39.82,1.46,1.46,0,0,0,0,.22,1.5,1.5,0,0,0,0,.23,2.52,2.52,0,0,0,.78,1.91,5.75,5.75,0,0,0,2.9.93C9.49,42.25,7,39.25,7,39.25a4.12,4.12,0,0,0,1.08,1.69c.21.26.59.91-.48,1.11a8.88,8.88,0,0,1-4.47-.3C1.13,41,.6,38.09.7,38.07m13.75-.94c2.77-.19-1.48,3-1.48,3-.49.12-1-.16-1.54-.23-1.57-.19-2.24-1.28-2.12-2.11S10.43,37.27,11,37a2.73,2.73,0,0,0,.73-.67,5.12,5.12,0,0,1,.55.22,4.6,4.6,0,0,0,2.16.55m-2-1.94H12.4l-.42.08-.17.21c-.54-.23-.6-.84-1.18-1.31a2.53,2.53,0,0,0-2.87,0c.53-.33.42-2.72-1.71-3.4A1.64,1.64,0,0,1,6.18,30c.35-.49,1.17-.11,1.59.07a13.48,13.48,0,0,0,4.84,1.29,7.76,7.76,0,0,0,2.27,2.33,5.47,5.47,0,0,1-1.51,1.11,5.13,5.13,0,0,1-.69.28l-.2.06M12.3,21.83a3.78,3.78,0,0,0-2.24,2.66,5.45,5.45,0,0,1-.19-1.43c0-2.1,1.25-3.59,2.48-3.6,1.07,0,1.29,1.88,0,2.36m-8.2,7c0-1.93,2.22-1.63,2.22-1.63s-3-4.31-.67-6.59c.2,6.08,4.18,8.55,5.92,9.18-1.5-1-5-4-5-8.87a7.78,7.78,0,0,1,4.75-7.32c1.3-.66,2.5-.91,3.19-3.17a3.25,3.25,0,0,1-2.13,4.27C9,15.88,8,18.54,8.21,19.4c.44-1,1.91-3.46,4.18-3.46,1.7,0,2.48.75,2.53,2A2.88,2.88,0,0,1,14,20.17a1.73,1.73,0,0,0-1.86-1.63A3.24,3.24,0,0,0,9.43,20.8,5.76,5.76,0,0,0,9,23s0,0,0,.07H9a6.64,6.64,0,0,0,.5,2.49l0,.08a7.58,7.58,0,0,0,.42.84c.09.16.18.31.27.45l0,0h0a8.23,8.23,0,0,0,2.16,2.3,13.52,13.52,0,0,0,1.78.92C11,31.3,7.66,28.77,6.59,28.78a1.28,1.28,0,0,0-1.31,1.29h0a1.58,1.58,0,0,0,0,.3,1.91,1.91,0,0,0,0,.2A1.65,1.65,0,0,1,4.1,28.88M20.95,13.21c-.12-.36-.16-.52-.24-.78-.2-.63,0-.93.3-1.19a15.41,15.41,0,0,1,3.77-1.69l1.32-.42a.45.45,0,0,1,.59.34c.08.38.15.74.25,1.24a.56.56,0,0,1-.36.69,24.08,24.08,0,0,0-3.92,1.41,9.33,9.33,0,0,0-1,.57c-.19.13-.52.29-.69-.18m-.88-2.8-.29-.92a.87.87,0,0,1,.1-.91,3.19,3.19,0,0,1,.74-.6.4.4,0,0,1,.63.19c.1.37.19.7.33,1.2a.56.56,0,0,1-.29.75,7,7,0,0,0-.71.47.32.32,0,0,1-.52-.19m-.94-2.95C19,7.09,19,6.9,18.9,6.7c-.17-.6,0-.88.17-1.09a9.48,9.48,0,0,1,3-1.76.6.6,0,0,1,.82.43l.22.93a.77.77,0,0,1-.41.91,13.09,13.09,0,0,0-2.44,1.16c-.19.13-.36.25-.52.37a.39.39,0,0,1-.63-.19m4.51-.16c.08.31.13.51.24,1s0,.71-.31.84-.46.17-.67.25-.56.09-.67-.3-.14-.51-.29-1.06a.69.69,0,0,1,.37-.89l.59-.24a.53.53,0,0,1,.73.41M27.9,8.64a70.5,70.5,0,0,1,8-1.17.59.59,0,0,1,.66.58c0,.49.06.9.09,1.34,0,.64-.36.79-.55.81a62,62,0,0,0-7.68,1c-.2,0-.6.07-.72-.52s-.18-.87-.25-1.23a.66.66,0,0,1,.48-.85M31,7.49l-.92.15a.49.49,0,0,1-.58-.46c-.08-.45-.16-1-.24-1.44A.6.6,0,0,1,29.73,5l.86-.14a.53.53,0,0,1,.63.5c.06.48.14,1.1.2,1.56a.47.47,0,0,1-.4.6M28.75,2.63a.58.58,0,0,1,.45-.71c1.13-.22,2.33-.41,3.58-.56a.48.48,0,0,1,.56.48c0,.47.11,1.08.15,1.5a.51.51,0,0,1-.44.59c-1.21.15-2.36.32-3.46.52A.51.51,0,0,1,29,4c-.08-.47-.15-.86-.23-1.35M33.66,5c.05.47.08.8.15,1.48,0,.52-.27.68-.44.7l-.84.1c-.19,0-.57.05-.65-.53s-.13-1-.19-1.45.28-.69.46-.72L33,4.47a.56.56,0,0,1,.64.53m3.85,2.35c1.33-.08,2.7-.12,4.1-.12h0c1.4,0,2.77,0,4.11.12a.56.56,0,0,1,.51.64c0,.47-.06.89-.09,1.46a.63.63,0,0,1-.71.63c-1.23-.06-2.51-.1-3.82-.1s-2.58,0-3.81.1a.63.63,0,0,1-.71-.63c0-.57-.06-1-.09-1.46a.56.56,0,0,1,.51-.64m3.87-2.83V6.11c0,.5-.32.59-.48.6h-.84a.51.51,0,0,1-.57-.56c0-.52,0-1,0-1.53s.3-.64.47-.65l.93,0a.52.52,0,0,1,.53.56m2.4.1c0,.56,0,1-.05,1.53a.51.51,0,0,1-.57.56h-.83c-.16,0-.48-.09-.48-.6V4.52A.51.51,0,0,1,42.37,4l.94,0c.17,0,.5.09.47.65M40,.82c.54,0,2.74,0,3.29,0,.22,0,.66.06.62.7s0,.8,0,1.29a.58.58,0,0,1-.62.63c-.53,0-2.68,0-3.22,0a.57.57,0,0,1-.62-.63c0-.49,0-.65,0-1.29s.41-.69.63-.7M46.69,8a.59.59,0,0,1,.66-.58,70.84,70.84,0,0,1,8,1.17.66.66,0,0,1,.49.85c-.07.35-.13.63-.25,1.23s-.53.57-.73.52a62,62,0,0,0-7.69-1c-.2,0-.58-.17-.54-.81,0-.43.05-.85.09-1.34m2.72-1.57c.07-.68.1-1,.14-1.48a.57.57,0,0,1,.64-.53l.88.11c.18,0,.53.17.45.72s-.12.87-.19,1.45-.46.55-.65.53l-.84-.1c-.16,0-.48-.18-.44-.7m4.53-.73c-.08.49-.16,1-.24,1.44a.49.49,0,0,1-.58.46l-.92-.15a.47.47,0,0,1-.4-.6c.06-.46.15-1.08.21-1.56a.53.53,0,0,1,.63-.5l.86.14a.61.61,0,0,1,.45.78m-4.22-2.4c0-.42.1-1,.15-1.5a.47.47,0,0,1,.56-.48c1.25.15,2.45.35,3.59.56a.57.57,0,0,1,.44.71c-.07.49-.15.88-.22,1.35a.51.51,0,0,1-.61.47c-1.09-.2-2.25-.37-3.46-.52a.5.5,0,0,1-.44-.59m6.56,7.37c.1-.5.17-.85.25-1.24a.45.45,0,0,1,.59-.34l1.32.42a15.43,15.43,0,0,1,3.78,1.69.92.92,0,0,1,.3,1.19c-.07.26-.12.42-.24.78s-.49.3-.69.18a9.86,9.86,0,0,0-1-.57,24.64,24.64,0,0,0-3.93-1.41.56.56,0,0,1-.35-.69m3.06-2.43.24-1a.53.53,0,0,1,.73-.41l.6.24a.69.69,0,0,1,.38.89L61,9.07c-.11.39-.39.39-.67.3s-.44-.15-.67-.25-.43-.37-.31-.84m.74-3.08c.07-.25.1-.41.22-.93a.6.6,0,0,1,.82-.43,9.51,9.51,0,0,1,3,1.76c.21.21.35.49.17,1.09l-.24.75a.38.38,0,0,1-.63.19c-.16-.12-.33-.25-.52-.37a13,13,0,0,0-2.45-1.16.77.77,0,0,1-.41-.91m3.37,4.28-.29.92a.32.32,0,0,1-.52.19,6.67,6.67,0,0,0-.72-.47.56.56,0,0,1-.28-.75L62,8.17A.4.4,0,0,1,62.6,8a3.26,3.26,0,0,1,.74.6.86.86,0,0,1,.1.91m-2.1,6.64a.38.38,0,0,1-.61.19c-.15-.09-.32-.18-.5-.27a.62.62,0,0,1-.22-.79l.31-1.11a.4.4,0,0,1,.58-.27,4.07,4.07,0,0,1,.62.41.87.87,0,0,1,.13.91c-.12.38-.18.58-.3.94M51,13c0-.34.09-.68.16-1.22a.56.56,0,0,1,.67-.53c1.43.22,2.76.46,3.95.74a22.28,22.28,0,0,1,3.58,1.15.6.6,0,0,1,.31.75L59.35,15a.52.52,0,0,1-.71.41,28.59,28.59,0,0,0-3.06-.85c-1.22-.27-2.6-.52-4.11-.73-.41-.06-.55-.33-.49-.8m-9.14-.56V11.14a.58.58,0,0,1,.63-.62,68.8,68.8,0,0,1,7.66.5.65.65,0,0,1,.53.8c-.06.46-.07.53-.15,1.15a.63.63,0,0,1-.74.62,70.86,70.86,0,0,0-7.34-.45.62.62,0,0,1-.58-.7M33.09,11a68.58,68.58,0,0,1,7.65-.5.58.58,0,0,1,.64.62v1.29a.63.63,0,0,1-.58.7,70.53,70.53,0,0,0-7.34.45.63.63,0,0,1-.75-.62c-.08-.62-.1-.68-.15-1.15a.65.65,0,0,1,.54-.8m-9.21,2.11A22.59,22.59,0,0,1,27.46,12c1.18-.28,2.51-.52,3.95-.74a.57.57,0,0,1,.68.53c.06.54.11.87.16,1.22s-.07.74-.49.8c-1.5.21-2.88.46-4.11.73a29.08,29.08,0,0,0-3.06.85.51.51,0,0,1-.71-.41l-.3-1.08a.6.6,0,0,1,.31-.75m-1.39,3.18a.39.39,0,0,1-.62-.19l-.29-.94a.85.85,0,0,1,.13-.91,3.88,3.88,0,0,1,.61-.41.41.41,0,0,1,.59.27c.1.35.19.7.31,1.11A.62.62,0,0,1,23,16c-.18.09-.35.18-.5.27m33,2.88A99.28,99.28,0,0,1,41.61,20a99,99,0,0,1-13.86-.85h-.08a23.8,23.8,0,0,1-4.08-.9,5.51,5.51,0,0,1-.52-.2.44.44,0,0,1-.12-.72c.25-.3.8-.14,1-.08C27.89,18.4,36.28,19,39.31,18.34c-5.41-.57-10-1.05-13-1.63-.48-.09-.6-.5.11-.73a5.11,5.11,0,0,1,1.91-.09c3.45.46,9.07.86,12.67.23-2.11-.21-5.35-.5-8.3-.8-.73-.08-.63-.44,0-.54a59.44,59.44,0,0,1,9-.56,59.36,59.36,0,0,1,9,.56c.62.1.72.46,0,.54-3,.31-6.19.59-8.3.8,3.6.63,9.22.23,12.68-.23a5.09,5.09,0,0,1,1.91.09c.72.23.59.64.11.73-3,.57-7.63,1.06-13,1.63,3,.62,11.42.05,15.37-1.07.2-.06.75-.22,1,.08a.44.44,0,0,1-.13.72,5,5,0,0,1-.53.2,14.1,14.1,0,0,1-1.69.47q-1.08.24-2.46.45M27.68,22.46a.9.9,0,0,1,.14-.33,11.38,11.38,0,0,0,.65-1.41c.06-.17.12-.49.74-.53l.78.08c.34.14.2.41.14.56a9.82,9.82,0,0,1-.54,1.35,1,1,0,0,1-.16.28Zm-2.87,0a.6.6,0,0,1,.11-.26,9.56,9.56,0,0,0,.93-1.75c.07-.18.24-.54,1-.46s.64.44.57.62a10.12,10.12,0,0,1-.82,1.65,1,1,0,0,1-.14.19Zm5.78,0a.64.64,0,0,1,.08-.32c.17-.38.32-.8.47-1.24a.66.66,0,0,1,.41-.46l1.24.1a.46.46,0,0,1,.06.46c-.11.44-.25.85-.38,1.23a.9.9,0,0,1-.12.24Zm2.87,0a.79.79,0,0,1,.06-.34c.12-.36.23-.73.33-1.13a.59.59,0,0,1,.21-.37l1.53.09a.62.62,0,0,1,0,.36c-.07.39-.15.76-.23,1.1a.84.84,0,0,1-.11.29Zm2.89,0a.59.59,0,0,1,0-.28c.08-.34.15-.69.21-1.07a.6.6,0,0,1,.13-.35l1.63.05a.8.8,0,0,1,0,.34c0,.37-.07.73-.11,1.06a.63.63,0,0,1-.07.26Zm2.89,0a.56.56,0,0,1,0-.24c0-.35.08-.74.12-1.14a.53.53,0,0,1,.06-.25h1.65a.6.6,0,0,1,.05.28v1.09a.79.79,0,0,1,0,.25Zm2.88,0a.88.88,0,0,1,0-.25V21.13a.6.6,0,0,1,0-.28h1.65a.48.48,0,0,1,.06.25c0,.4.07.79.11,1.14a.56.56,0,0,1,0,.24Zm2.93,0A.6.6,0,0,1,45,22.2c0-.33-.08-.69-.11-1.06a.89.89,0,0,1,0-.34l1.63-.05a.61.61,0,0,1,.13.35c.07.38.14.73.22,1.07a.63.63,0,0,1,0,.28Zm2.91,0a.71.71,0,0,1-.11-.29c-.08-.34-.15-.71-.22-1.1a.6.6,0,0,1,0-.36l1.53-.09a.56.56,0,0,1,.2.37q.15.59.33,1.13a.72.72,0,0,1,.07.34Zm2.91,0a1,1,0,0,1-.12-.24c-.14-.38-.27-.79-.38-1.23a.49.49,0,0,1,.06-.46l1.24-.1a.66.66,0,0,1,.41.46,11.22,11.22,0,0,0,.47,1.24.69.69,0,0,1,.08.32Zm3.87-1.74a11.25,11.25,0,0,0,.65,1.41,1,1,0,0,1,.14.33H53.79a1.09,1.09,0,0,1-.17-.28,10.69,10.69,0,0,1-.54-1.35c-.05-.15-.19-.41.14-.56L54,20.2c.62,0,.68.35.73.53m2,1.74a.85.85,0,0,1-.14-.19,10,10,0,0,1-.82-1.65c-.07-.18-.22-.54.58-.62s1,.28,1,.46a9.16,9.16,0,0,0,.93,1.75.59.59,0,0,1,.11.26Zm14.22-.63c-1.33-.48-1.11-2.36,0-2.36,1.22,0,2.49,1.49,2.48,3.6a5.18,5.18,0,0,1-.2,1.43,3.79,3.79,0,0,0-2.23-2.66M68.29,18c0-1.27.84-2,2.53-2,2.27,0,3.75,2.46,4.18,3.46.25-.85-.78-3.51-4.17-4.65a3.25,3.25,0,0,1-2.12-4.27c.7,2.25,1.89,2.5,3.2,3.17A7.79,7.79,0,0,1,76.66,21a11.05,11.05,0,0,1-5,8.87c1.75-.62,5.72-3.1,5.93-9.18,2.33,2.29-.68,6.59-.68,6.59s2.23-.31,2.22,1.63a1.64,1.64,0,0,1-1.25,1.69,1.68,1.68,0,0,0,0-.2,1.32,1.32,0,0,0,0-.3h0a1.27,1.27,0,0,0-1.31-1.29c-1.07,0-4.39,2.52-7.6,1.43a13.12,13.12,0,0,0,1.78-.92A8.13,8.13,0,0,0,73,27h0l0,0c.09-.15.18-.3.27-.45a7.43,7.43,0,0,0,.42-.84.26.26,0,0,0,0-.08,6.59,6.59,0,0,0,.51-2.49h0s0,0,0-.07a5.64,5.64,0,0,0-.46-2.2,3.24,3.24,0,0,0-2.68-2.26,1.74,1.74,0,0,0-1.87,1.63A2.86,2.86,0,0,1,68.29,18m2.64,18.62a5.11,5.11,0,0,1,.56-.22,2.64,2.64,0,0,0,.73.67c.56.24,1.59-.11,1.71.73s-.55,1.92-2.13,2.11c-.56.07-1,.35-1.55.23,0,0-4.25-3.16-1.48-3a4.62,4.62,0,0,0,2.16-.55m4.52-2.4a2.53,2.53,0,0,0-2.87,0c-.58.48-.64,1.08-1.18,1.31l-.17-.21-.42-.08h-.08l-.19-.06a4.94,4.94,0,0,1-.7-.28,5.47,5.47,0,0,1-1.51-1.11,7.71,7.71,0,0,0,2.27-2.33,13.37,13.37,0,0,0,4.83-1.29c.42-.18,1.25-.56,1.59-.07a1.56,1.56,0,0,1,.14.73c-2.13.67-2.24,3.07-1.71,3.4m3.75.16a3.36,3.36,0,0,1,.17,3.44c-.2.44-1.17,1.26-.91,1.73.55,1,4-1.45,4.06-1.43s-.43,2.95-2.45,3.68a8.82,8.82,0,0,1-4.46.3c-1.08-.2-.7-.85-.48-1.11a4.15,4.15,0,0,0,1.08-1.69s-2.48,3-5.06,1.46a5.78,5.78,0,0,0,2.91-.93,2.55,2.55,0,0,0,.79-1.91,2.06,2.06,0,0,0,0-.23,1.27,1.27,0,0,0,0-.22,2,2,0,0,0-.4-.82A1.78,1.78,0,0,0,73.2,36a2.08,2.08,0,0,0-.49,0,1.94,1.94,0,0,1,.07-.52,1.08,1.08,0,0,1,.93-.8l.07,0A1.79,1.79,0,0,1,75,35l.06.05.17.14A4.75,4.75,0,0,1,76.35,37l.13.46.28-.37a1.57,1.57,0,0,0,.29-.62h0c0-.07,0-.15,0-.22a.56.56,0,0,0,0-.11,2.16,2.16,0,0,0,0-.4c-.06-.43-.91-1.27-1-2a1.64,1.64,0,0,1,1.24-2.06c-.08.87,1.36,1.9,1.9,2.6m2.61,7.43c1.5-1.4,1.53-4.49,1.29-5.62a6.57,6.57,0,0,1-1.23,1.42c-1.28.88-1.83,1-2.32,1a4.61,4.61,0,0,0,1-4.15c-.66-1.64-2.6-1.84-2.62-3a2.41,2.41,0,0,0,2-2.53,2.75,2.75,0,0,0-.64-1.9,2.08,2.08,0,0,0-1.07-.61c.69-1.25,2.34-4.92-.86-7A8.21,8.21,0,0,0,72.67,13c-1.7-.95-2.8-1-3.7-4-2.06,1.32-1.67,4.69.38,6-2.64,1.36-2,3.82-1.28,5.33.51,1,.24,1.54-.11,1.85a3.07,3.07,0,0,0-1,1.23c-.06.2,0,.55-.17.7-1.1.95-5.39-6.27-4.62-8.33h0c.92-2.9,3-9.51,3-9.51V6.22c0-.77-.58-1.32-1.39-1.88a15.72,15.72,0,0,0-3.48-1.62L60,2.6,58.74,7.72c-.21.89-.79.85-1.08.76-.76-.23-1.57-.46-2.54-.71-.26-.06-.79-.25-.65-1.1s.91-5.3.91-5.3L55,1.3C53.39,1,51.58.67,49.65.46l-.35,0S48.86,5,48.77,5.85s-.62.86-.89.84c-.84-.08-1.72-.13-2.61-.18a.87.87,0,0,1-.82-1c0-.8.17-5.45.17-5.45h-.35c-.87,0-1.77,0-2.67,0s-1.79,0-2.66,0h-.35s.18,4.65.18,5.45a.87.87,0,0,1-.83,1c-.89,0-1.76.1-2.61.18-.26,0-.8,0-.89-.84S33.91.41,33.91.41l-.34,0c-1.92.22-3.74.5-5.39.85l-.35.07s.76,4.46.91,5.3-.39,1-.65,1.1c-1,.25-1.77.48-2.53.71-.29.08-.87.13-1.08-.76L23.24,2.6l-.34.12a15.87,15.87,0,0,0-3.48,1.62c-.81.56-1.37,1.11-1.39,1.88v.07s2.06,6.61,3,9.51c.77,2.05-3.51,9.27-4.61,8.33-.18-.15-.12-.5-.17-.7a3.07,3.07,0,0,0-1-1.23c-.35-.31-.61-.86-.11-1.85.77-1.51,1.36-4-1.27-5.33,2-1.28,2.42-4.65.37-6-.9,3-2,3-3.7,4a8.21,8.21,0,0,0-4.77,6.32c-3.19,2.08-1.54,5.76-.86,7A2.08,2.08,0,0,0,3.85,27a2.77,2.77,0,0,0-.65,1.9,2.42,2.42,0,0,0,2,2.53c0,1.17-2,1.37-2.61,3a4.62,4.62,0,0,0,1,4.15c-.49,0-1-.12-2.32-1A6.48,6.48,0,0,1,.12,36.15c-.25,1.13-.21,4.22,1.29,5.62C2.68,43,5.22,44.21,7,43.85a5.39,5.39,0,0,0-4.6,4.78c-.44,3.31,1.18,6.72,2.16,8.43,1.24,2.18,3.7,5.91,5.91,7.32a4,4,0,0,0,2.29.64,5.36,5.36,0,0,1,.47.41,6.17,6.17,0,0,1,.56,1.81,5.23,5.23,0,0,0,.9,1.67A4,4,0,0,0,18,70.43a10.82,10.82,0,0,0,4.4-1.35,5.86,5.86,0,0,1,.57-.23c-.16.56-.32,1.32-.09,1.38-1.46-.34-2.77,1.35-4.27,1.52a7.66,7.66,0,0,1,1.54.94,5.32,5.32,0,0,0,2,1,1.92,1.92,0,0,0,.64,0s0,.1,0,.16a1.85,1.85,0,0,0,2.21,1.83,1.21,1.21,0,0,1,.92-1.14,3.84,3.84,0,0,0,2.29-1.27.45.45,0,0,0,0,.06A2.47,2.47,0,0,0,29,75.76a2.16,2.16,0,0,1,.56-.56,3.64,3.64,0,0,0,2.8,1.93c3.47.59,4.26-2,4.18-2.17a14.11,14.11,0,0,1-2.14-.14,3.31,3.31,0,0,1-2.58-2.2c-1.42-3.36-2.33-7.49-5.51-8.15l-.25,0a6,6,0,0,0-3.78,1.19,3.64,3.64,0,0,0-.78-1.41,2.36,2.36,0,0,0-1.77-.72c.41-.36.75-.72,1.07-1a10.27,10.27,0,0,1,3-1.73,12.74,12.74,0,0,0-2.65-2.91,2.85,2.85,0,0,0-1.27-.47A2.24,2.24,0,0,0,17.68,56a2.8,2.8,0,0,0-1,.24,6.9,6.9,0,0,0,.45-2.84s2.68-.53,2.66-2.91A2.47,2.47,0,0,0,19,48.64a1.91,1.91,0,0,0-1.37-.52,2.19,2.19,0,0,0-1.77,1.22l-.19.31a13.82,13.82,0,0,1,.35-1.81,15,15,0,0,0,.25-2.38,19.33,19.33,0,0,0,2.86-2.91c.29-.35.71-.52.84-.1.27,24.08,21.42,32.27,21.45,32.29l.14.05.15-.05S62.94,66.53,63.2,42.45c.13-.41.55-.24.83.11a19.26,19.26,0,0,0,2.87,2.91,14.44,14.44,0,0,0,.25,2.38,13.79,13.79,0,0,1,.35,1.81l-.19-.31a2.2,2.2,0,0,0-1.77-1.22,1.9,1.9,0,0,0-1.37.52,2.46,2.46,0,0,0-.72,1.82c0,2.38,2.62,2.92,2.66,2.91a6.89,6.89,0,0,0,.44,2.84,2.8,2.8,0,0,0-1-.24,2.23,2.23,0,0,0-2.22,1.42,2.85,2.85,0,0,0-1.27.47,12.81,12.81,0,0,0-2.65,2.91,10.28,10.28,0,0,1,3,1.73c.32.26.66.62,1.07,1a2.38,2.38,0,0,0-1.77.72,3.68,3.68,0,0,0-.78,1.41,6,6,0,0,0-3.78-1.19l-.25,0c-3.18.66-4.09,4.79-5.51,8.15a3.3,3.3,0,0,1-2.58,2.2,14.11,14.11,0,0,1-2.14.14c-.09.13.71,2.76,4.18,2.17a3.64,3.64,0,0,0,2.79-1.93,2.1,2.1,0,0,1,.56.56,2.47,2.47,0,0,0,.87-2.46.35.35,0,0,1,0-.06,3.83,3.83,0,0,0,2.29,1.27,1.2,1.2,0,0,1,.92,1.14,1.85,1.85,0,0,0,2.21-1.83.73.73,0,0,0,0-.16,2,2,0,0,0,.65,0,5.32,5.32,0,0,0,2-1,7.91,7.91,0,0,1,1.54-.94c-1.5-.17-2.8-1.86-4.27-1.52.23-.06.07-.82-.09-1.38a5.49,5.49,0,0,1,.57.23,10.78,10.78,0,0,0,4.41,1.35,4,4,0,0,0,3.31-1.52,5.33,5.33,0,0,0,.9-1.67A6.41,6.41,0,0,1,70,65.43c.06-.09.31-.26.47-.41a4.07,4.07,0,0,0,2.29-.64C75,63,77.44,59.23,78.68,57.06c1-1.71,2.6-5.12,2.16-8.43a5.39,5.39,0,0,0-4.6-4.78c1.76.36,4.3-.88,5.58-2.08"/><path class="cls-1" d="M22.65,25.39H60.57v16c0,19.55-15.39,27.92-19,29.6C38,69.3,22.66,61.12,22.65,41.4v-16Zm-.44,16v.69c0,20.22,15.76,28.49,19.3,30.09l.09,0,.08,0C45.14,70.54,61,62.1,61,42.06V24.91H22.21Z"/><path class="cls-1" d="M55.21,41.41a1,1,0,0,0,.32.73,1,1,0,0,0,.73.32,1.22,1.22,0,0,0,.85-.41A6.43,6.43,0,0,0,58,39.88l.09-.34-.34.09a6.54,6.54,0,0,0-2.17.93,1.2,1.2,0,0,0-.41.85"/><path class="cls-1" d="M45.54,45.5a1.09,1.09,0,0,0-1.06,1.18,5.8,5.8,0,0,0,.88,2.2l.18.3.17-.3a6.61,6.61,0,0,0,.89-2.2,1.08,1.08,0,0,0-1-1.18h0"/><path class="cls-1" d="M44.54,30.37a1.2,1.2,0,0,0,.85-.4,6.58,6.58,0,0,0,.93-2.18l.09-.33-.34.09a6.49,6.49,0,0,0-2.17.93,1.21,1.21,0,0,0-.4.86,1.08,1.08,0,0,0,1,1"/><path class="cls-1" d="M28.08,43.69a.6.6,0,0,1,.64.45,1,1,0,0,1,0,.21.82.82,0,0,1,0,.2.6.6,0,0,1-.64.46,4.07,4.07,0,0,1-1.49-.66,4,4,0,0,1,1.49-.67m3.16-1.21a.89.89,0,0,1-.13.16h0a1,1,0,0,1-.16.13h0a.6.6,0,0,1-.78-.14,4.11,4.11,0,0,1-.58-1.52,4,4,0,0,1,1.52.58.59.59,0,0,1,.14.78M41.6,46v0l0,0v0a2.93,2.93,0,0,1,1.83-1.31c-1.14,1.46-1.26,4.34-1.1,6.4,0,.71-.5,1-.5,1.13s.71.27.79,1-.69.69-.69.86,1,.36,1.17,1.08-.92.51-.86.75,1.42.59,1.54,1.11-.34.49-.64.44a9,9,0,0,0-3.12,0c-.3.05-.77.08-.65-.44s1.49-.86,1.55-1.11-1,0-.86-.75,1.17-.91,1.17-1.08-.78-.17-.69-.86.8-.81.8-1-.51-.42-.51-1.13c.16-2.06,0-4.94-1.1-6.4A2.93,2.93,0,0,1,41.6,46m0-2.74a.57.57,0,1,1-.57.57.57.57,0,0,1,.57-.57m-.68-12.55a4,4,0,0,1,.66-1.48,4,4,0,0,1,.67,1.48.66.66,0,1,1-1.33,0m-1.61,8.93a.78.78,0,0,1-.21,0h0a.6.6,0,0,1-.45-.64,4.12,4.12,0,0,1,.66-1.48A4,4,0,0,1,40,39a.6.6,0,0,1-.46.64.7.7,0,0,1-.21,0Zm-2.46,2.63a.59.59,0,0,1-.64.45,4,4,0,0,1-1.48-.66,4,4,0,0,1,1.48-.66.59.59,0,0,1,.64.45h0a.75.75,0,0,1,0,.21.77.77,0,0,1,0,.21m-.41-5.34a.6.6,0,0,1-.46-.64,4.15,4.15,0,0,1,.66-1.48,4.06,4.06,0,0,1,.66,1.48.6.6,0,0,1-.45.64.56.56,0,0,1-.42,0m-2.25,2.67a.6.6,0,0,1-.64.46,4,4,0,0,1-1.49-.66,4.1,4.1,0,0,1,1.49-.66.6.6,0,0,1,.64.45.84.84,0,0,1,0,.21.72.72,0,0,1,0,.2m-.41-5.33a.59.59,0,0,1-.46-.63A4,4,0,0,1,34,32.16a4.05,4.05,0,0,1,.66,1.49.59.59,0,0,1-.45.63.69.69,0,0,1-.21,0,.58.58,0,0,1-.21,0m-2.22,2.47a.64.64,0,0,1,0,.21h0a.59.59,0,0,1-.63.45,4.11,4.11,0,0,1-1.49-.66,4,4,0,0,1,1.49-.67.59.59,0,0,1,.63.46h0a.62.62,0,0,1,0,.21Zm-.33-3a.74.74,0,0,1-.13.17A.76.76,0,0,1,31,34a.6.6,0,0,1-.78-.14,4.08,4.08,0,0,1-.58-1.52,4,4,0,0,1,1.51.58.59.59,0,0,1,.14.78M40,33.59h0a.76.76,0,0,1-.13.17.86.86,0,0,1-.17.13.59.59,0,0,1-.78-.14,4,4,0,0,1-.58-1.52,4.08,4.08,0,0,1,1.52.58.6.6,0,0,1,.14.78m3.3-.78a4,4,0,0,1,1.52-.58,4,4,0,0,1-.58,1.52.59.59,0,0,1-.78.14.94.94,0,0,1-.16-.13.71.71,0,0,1-.13-.17h0a.6.6,0,0,1,.14-.78m.34,6.8a.59.59,0,0,1-.45-.64,4,4,0,0,1,.66-1.48A4.11,4.11,0,0,1,44.55,39a.6.6,0,0,1-.46.64h0a.76.76,0,0,1-.21,0h0a.73.73,0,0,1-.21,0m2.67-2.67a.59.59,0,0,1-.46-.64,4.13,4.13,0,0,1,.66-1.48,4.07,4.07,0,0,1,.66,1.48.59.59,0,0,1-.45.64.67.67,0,0,1-.21,0,.64.64,0,0,1-.21,0M49,34.28a.59.59,0,0,1-.45-.63,4.1,4.1,0,0,1,.66-1.49,4,4,0,0,1,.67,1.49.59.59,0,0,1-.46.63.61.61,0,0,1-.21,0,.75.75,0,0,1-.21,0m3.11-1.36a4.06,4.06,0,0,1,1.52-.58A4,4,0,0,1,53,33.85a.6.6,0,0,1-.78.14.65.65,0,0,1-.16-.13A.76.76,0,0,1,52,33.7a.59.59,0,0,1,.14-.78m-.47,3.83a.71.71,0,0,1,0-.21h0a.6.6,0,0,1,.64-.46,4.09,4.09,0,0,1,1.48.67,4.15,4.15,0,0,1-1.48.66.6.6,0,0,1-.64-.45h0a.92.92,0,0,1,0-.21ZM49,39.2a.6.6,0,0,1,.64-.45,4,4,0,0,1,1.48.66,3.94,3.94,0,0,1-1.48.66.6.6,0,0,1-.64-.46.75.75,0,0,1,0-.2.88.88,0,0,1,0-.21m-2.66,2.67h0a.59.59,0,0,1,.63-.45,4.08,4.08,0,0,1,1.49.66,4,4,0,0,1-1.49.66.59.59,0,0,1-.63-.45.72.72,0,0,1,0-.21.7.7,0,0,1,0-.21m5.76-.18a4,4,0,0,1,1.52-.58A4.2,4.2,0,0,1,53,42.62a.61.61,0,0,1-.79.14h0a1,1,0,0,1-.16-.13.86.86,0,0,1-.13-.16.59.59,0,0,1,.14-.78m2.39,2.45a.59.59,0,0,1,.64-.45,4.1,4.1,0,0,1,1.49.67,4.14,4.14,0,0,1-1.49.66.59.59,0,0,1-.64-.46.56.56,0,0,1,0-.2.66.66,0,0,1,0-.21M52,46.22h0a1.11,1.11,0,0,1,.13-.16l.16-.13h0a.6.6,0,0,1,.78.14,4.09,4.09,0,0,1,.59,1.51A4,4,0,0,1,52.11,47a.59.59,0,0,1-.14-.79m-3.77,0a.67.67,0,0,1,.13-.16l.16-.13a.59.59,0,0,1,.78.14,4,4,0,0,1,.59,1.51A4,4,0,0,1,48.34,47a.6.6,0,0,1-.14-.78M34.88,47a4,4,0,0,1-1.52.58,4.22,4.22,0,0,1,.58-1.51.6.6,0,0,1,.78-.14l.17.13a1.13,1.13,0,0,1,.13.16.58.58,0,0,1-.14.78m-3.77,0a4,4,0,0,1-1.52.58,4.13,4.13,0,0,1,.58-1.51.6.6,0,0,1,.78-.14h0a1,1,0,0,1,.16.13h0a.85.85,0,0,1,.13.16h0a.59.59,0,0,1-.14.79m-3.27-1.27a1.44,1.44,0,0,0,1.49-1h2.79l-.71.7a1.3,1.3,0,0,0-.8-.28,1.59,1.59,0,0,0-1.13.54,8.91,8.91,0,0,0-1.27,3l-.08.34.34-.08a9,9,0,0,0,3-1.27A1.61,1.61,0,0,0,32,46.56a1.31,1.31,0,0,0-.29-.8,3.17,3.17,0,0,1,2.23-1h2l-.71.7a1.3,1.3,0,0,0-.8-.28,1.6,1.6,0,0,0-1.13.54,9.16,9.16,0,0,0-1.27,3L31.9,49l.33-.08a9,9,0,0,0,3-1.27,1.62,1.62,0,0,0,.54-1.13,1.31,1.31,0,0,0-.29-.8,2.7,2.7,0,0,1,2.16-1,2.07,2.07,0,0,1,2,1.48c.89,2.61.39,7.32-1,10.46a5.25,5.25,0,0,1-4.48,3.16c1,.73,2.9,0,3.83-.62a2.63,2.63,0,0,1,1.45-.69c.7,0,.5,1.2.26,1.71.89,0,1.31-2,1.92-2h0c.61,0,1,2,1.92,2-.24-.51-.43-1.71.26-1.71a2.66,2.66,0,0,1,1.46.69c.92.64,2.85,1.35,3.82.62a5.26,5.26,0,0,1-4.48-3.16c-1.39-3.15-1.89-7.85-1-10.46a2.08,2.08,0,0,1,2-1.48,2.7,2.7,0,0,1,2.16,1,1.33,1.33,0,0,0-.28.8A1.63,1.63,0,0,0,48,47.69,9.12,9.12,0,0,0,51,49l.34.08-.08-.34a9.23,9.23,0,0,0-1.27-3,1.61,1.61,0,0,0-1.14-.54,1.31,1.31,0,0,0-.8.28l-.7-.7h2a3.16,3.16,0,0,1,2.22,1,1.26,1.26,0,0,0-.27.8,1.57,1.57,0,0,0,.53,1.13,9,9,0,0,0,3,1.27l.34.08L55,48.71a9.08,9.08,0,0,0-1.27-3,1.59,1.59,0,0,0-1.13-.54,1.31,1.31,0,0,0-.8.28l-.71-.7h2.79a1.44,1.44,0,0,0,1.49,1,9.11,9.11,0,0,0,3-1.21l.3-.18-.3-.18a9.11,9.11,0,0,0-3-1.22,1.45,1.45,0,0,0-1.49,1H51.09l.71-.71a1.3,1.3,0,0,0,.79.28h0A1.61,1.61,0,0,0,53.73,43,9.12,9.12,0,0,0,55,40l.09-.34-.34.09a9.13,9.13,0,0,0-3,1.27,1.6,1.6,0,0,0-.54,1.13,1.29,1.29,0,0,0,.29.79,3.32,3.32,0,0,1-2.25,1H44c-.79,0-.72-.62-.44-.9a3,3,0,0,1,2.17-.75,1.42,1.42,0,0,0,1.53,1.19,9.24,9.24,0,0,0,3-1.22l.29-.18-.29-.18a9.25,9.25,0,0,0-3-1.21h0a1.42,1.42,0,0,0-1.53,1.18h-1l1.38-1.38a2.77,2.77,0,0,1,2.28-.87,1.43,1.43,0,0,0,1.54,1.19,9.09,9.09,0,0,0,3-1.21l.3-.18-.3-.18a9,9,0,0,0-3-1.22h0a1.42,1.42,0,0,0-1.54,1.18h-1l1.33-1.33A3.57,3.57,0,0,1,51,36.95a1.42,1.42,0,0,0,1.54,1.19,9.17,9.17,0,0,0,3-1.22l.29-.18-.29-.18a9.1,9.1,0,0,0-3-1.22A1.43,1.43,0,0,0,51,36.54H50l2-2a1.29,1.29,0,0,0,.62.17h0a1.61,1.61,0,0,0,1.13-.54,8.91,8.91,0,0,0,1.27-3l.09-.33-.33.08a9.12,9.12,0,0,0-3,1.28,1.61,1.61,0,0,0-.53,1.13,1.24,1.24,0,0,0,.17.62l-2,2v-1a1.62,1.62,0,0,0,.36-.1,1.36,1.36,0,0,0,.77-1,2.06,2.06,0,0,0,.06-.47A6.68,6.68,0,0,0,49.72,31l-.32-.57-.15-.25,0,0h0l-.18.3-.25.46a7.06,7.06,0,0,0-1,2.56A1.42,1.42,0,0,0,49,34.94a3.37,3.37,0,0,1-.89,2.3l-1.36,1.37v-1a1.42,1.42,0,0,0,1.19-1.54A3.41,3.41,0,0,0,47.69,35a14.91,14.91,0,0,0-1-1.94l-.18-.3h0l-.09.15-.09.15s-.22.37-.46.86a5.83,5.83,0,0,0-.75,2.15,2.05,2.05,0,0,0,.06.47,1.47,1.47,0,0,0,.47.79,1.34,1.34,0,0,0,.66.29,2.88,2.88,0,0,1-.77,2.19l-1.48,1.48v-1a1.43,1.43,0,0,0,1.19-1.54,9.19,9.19,0,0,0-1.21-3l-.18-.3-.18.3a9.14,9.14,0,0,0-1.21,3,1.42,1.42,0,0,0,1.18,1.54,2.75,2.75,0,0,1-.57,2c-.37.37-1.08.47-1.08-.73V37a3.84,3.84,0,0,1,1-2.66,1.29,1.29,0,0,0,.79.29h0A1.63,1.63,0,0,0,45,34.09a9.18,9.18,0,0,0,1.27-3l.08-.34-.34.09a9.08,9.08,0,0,0-3,1.27,1.63,1.63,0,0,0-.53,1.13,1.3,1.3,0,0,0,.29.79l-.7.71V32a1.45,1.45,0,0,0,1-1.49,9.06,9.06,0,0,0-1.21-3l-.18-.29h0l-.18.29a9.07,9.07,0,0,0-1.21,3,1.44,1.44,0,0,0,1,1.49v2.78L40.49,34a1.29,1.29,0,0,0,.29-.79,1.61,1.61,0,0,0-.54-1.13,9,9,0,0,0-3-1.27l-.34-.09.08.34a9.15,9.15,0,0,0,1.27,3,1.64,1.64,0,0,0,1.13.54h0a1.27,1.27,0,0,0,.79-.29,3.81,3.81,0,0,1,1,2.66v4.53c0,1.19-.71,1.1-1.09.73a2.76,2.76,0,0,1-.58-2,1.42,1.42,0,0,0,1.19-1.54,9.26,9.26,0,0,0-1.22-3l-.18-.3-.18.3a9.32,9.32,0,0,0-1.22,3,1.42,1.42,0,0,0,1.19,1.54v1L37.65,39.8a2.85,2.85,0,0,1-.77-2.19,1.33,1.33,0,0,0,.66-.29,1.4,1.4,0,0,0,.47-.79,2.05,2.05,0,0,0,.07-.47,6,6,0,0,0-.75-2.15c-.25-.49-.47-.85-.47-.86l-.09-.15-.09-.15h0l-.17.3a13.85,13.85,0,0,0-1,1.94,3.6,3.6,0,0,0-.26,1.07,1.42,1.42,0,0,0,1.19,1.54v1l-1.37-1.37a3.38,3.38,0,0,1-.88-2.3,1.42,1.42,0,0,0,1.19-1.54,7.25,7.25,0,0,0-1-2.56l-.26-.46-.18-.3h0l0,0-.14.25s-.14.24-.32.57a6.73,6.73,0,0,0-.9,2.44,1.88,1.88,0,0,0,.06.47,1.37,1.37,0,0,0,.77,1,1.59,1.59,0,0,0,.36.1v1l-2-2a1.28,1.28,0,0,0,.17-.62,1.59,1.59,0,0,0-.53-1.13,9.16,9.16,0,0,0-3-1.28l-.34-.08.09.33a9.11,9.11,0,0,0,1.27,3,1.63,1.63,0,0,0,1.13.54h0a1.24,1.24,0,0,0,.61-.17l2,2h-1a1.42,1.42,0,0,0-1.54-1.19,9.05,9.05,0,0,0-3,1.22l-.3.18.3.18a9.12,9.12,0,0,0,3,1.22,1.42,1.42,0,0,0,1.54-1.19,3.56,3.56,0,0,1,2.33.92l1.34,1.33h-1A1.42,1.42,0,0,0,33.33,38h0a9,9,0,0,0-3,1.22l-.3.18.3.18a9.16,9.16,0,0,0,3,1.21,1.43,1.43,0,0,0,1.54-1.19,2.77,2.77,0,0,1,2.28.87l1.38,1.38h-1A1.41,1.41,0,0,0,36,40.68h0a9.22,9.22,0,0,0-3,1.21l-.3.18.3.18a9.21,9.21,0,0,0,3,1.22,1.41,1.41,0,0,0,1.54-1.19A3,3,0,0,1,39.7,43c.28.28.35.9-.44.9H34a3.33,3.33,0,0,1-2.25-1,1.29,1.29,0,0,0,.29-.79A1.63,1.63,0,0,0,31.46,41a9.23,9.23,0,0,0-3-1.27l-.34-.09.08.34a9,9,0,0,0,1.27,3,1.61,1.61,0,0,0,1.13.53h0a1.28,1.28,0,0,0,.79-.28l.71.71H29.33a1.45,1.45,0,0,0-1.49-1,9.15,9.15,0,0,0-3,1.22l-.3.18.3.18a9.14,9.14,0,0,0,3,1.21"/><path class="cls-1" d="M37.68,49.17l.18-.3a5.79,5.79,0,0,0,.88-2.2,1.09,1.09,0,0,0-1.06-1.18h0a1.08,1.08,0,0,0-1,1.18,6.69,6.69,0,0,0,.89,2.2Z"/><path class="cls-1" d="M37.82,30a1.22,1.22,0,0,0,.86.4,1.09,1.09,0,0,0,1-1,1.21,1.21,0,0,0-.41-.86,6.5,6.5,0,0,0-2.17-.93l-.34-.09.08.33A6.8,6.8,0,0,0,37.82,30"/><path class="cls-1" d="M26.1,42.06a1.23,1.23,0,0,0,.86.41,1.11,1.11,0,0,0,1-1,1.21,1.21,0,0,0-.41-.85,6.52,6.52,0,0,0-2.17-.93l-.33-.09.08.34a6.65,6.65,0,0,0,.93,2.17"/><path class="cls-1" d="M43.36,63.86l-.52,0-.15-.79-.1-.13a1.81,1.81,0,0,0-.59-.1c-1.16,0-1.93,1.19-1.65,2.63a2.15,2.15,0,0,0,.55,1.11,1.75,1.75,0,0,0,1.28.45,1.86,1.86,0,0,0,.41-.05l.12-.14.18-.9.52,0V67.2a4.86,4.86,0,0,1-1.47.3,2.47,2.47,0,0,1-2.67-2,2.53,2.53,0,0,1,.62-2.29,2.82,2.82,0,0,1,2-.79,5.43,5.43,0,0,1,1.47.21Z"/><polygon class="cls-1" points="225.37 74.37 225.37 9.15 226.44 9.15 226.44 74.37 225.37 74.37 225.37 74.37"/><path class="cls-1" d="M285,39.73V25.93h1.95l4.42,7a39.57,39.57,0,0,1,2.48,4.49l0,0c-.16-1.85-.21-3.52-.21-5.68V25.93h1.68V39.73h-1.8l-4.38-7a43.5,43.5,0,0,1-2.58-4.61l-.06,0c.1,1.74.14,3.4.14,5.7v5.9Z"/><path class="cls-1" d="M299.42,35.1a3.17,3.17,0,0,0,3.4,3.44,6.5,6.5,0,0,0,2.75-.51l.31,1.29a7.89,7.89,0,0,1-3.3.64c-3.05,0-4.88-2-4.88-5s1.76-5.34,4.65-5.34c3.24,0,4.09,2.84,4.09,4.67a6.49,6.49,0,0,1-.06.84Zm5.28-1.29c0-1.15-.47-2.93-2.5-2.93-1.82,0-2.62,1.68-2.76,2.93Z"/><path class="cls-1" d="M309.4,29.81l1.31,5c.29,1.11.56,2.13.74,3.15h.06c.23-1,.55-2.07.88-3.15l1.62-5h1.52l1.54,5c.37,1.19.65,2.23.88,3.23H318a30.83,30.83,0,0,1,.76-3.21l1.41-5H322l-3.19,9.92h-1.64L315.61,35a31.88,31.88,0,0,1-.88-3.26h0a29.78,29.78,0,0,1-.9,3.28l-1.6,4.71h-1.64l-3-9.92Z"/><path class="cls-1" d="M328.1,25.19h1.8V39.73h-1.8Z"/><path class="cls-1" d="M333.94,35.1a3.18,3.18,0,0,0,3.4,3.44,6.53,6.53,0,0,0,2.75-.51l.3,1.29a7.87,7.87,0,0,1-3.3.64c-3.05,0-4.88-2-4.88-5s1.76-5.34,4.65-5.34c3.24,0,4.1,2.84,4.1,4.67a6.32,6.32,0,0,1-.06.84Zm5.29-1.29c0-1.15-.47-2.93-2.5-2.93-1.82,0-2.62,1.68-2.76,2.93Z"/><path class="cls-1" d="M343.9,29.81l1.94,5.57a24.64,24.64,0,0,1,.8,2.54h.06c.23-.82.51-1.64.84-2.54l1.93-5.57h1.88l-3.89,9.92h-1.72L342,29.81Z"/><path class="cls-1" d="M353.86,35.1a3.18,3.18,0,0,0,3.4,3.44A6.53,6.53,0,0,0,360,38l.31,1.29A7.89,7.89,0,0,1,357,40c-3.05,0-4.88-2-4.88-5s1.76-5.34,4.65-5.34c3.24,0,4.1,2.84,4.1,4.67a7.22,7.22,0,0,1-.06.84Zm5.29-1.29c0-1.15-.47-2.93-2.5-2.93-1.82,0-2.62,1.68-2.77,2.93Z"/><path class="cls-1" d="M363.12,25.19h1.8V39.73h-1.8Z"/><path class="cls-1" d="M368.79,40a1.27,1.27,0,0,1,0-2.54,1.27,1.27,0,0,1,0,2.54Zm-.67-4.2-.29-9.83h2l-.29,9.83Z"/><path class="cls-1" d="M285,62.86V49.05h1.95l4.42,7a39.59,39.59,0,0,1,2.48,4.48h0c-.16-1.85-.21-3.53-.21-5.68V49.05h1.68v13.8h-1.8l-4.38-7a44.07,44.07,0,0,1-2.58-4.61l-.06,0c.1,1.74.14,3.4.14,5.7v5.9Z"/><path class="cls-1" d="M299.42,58.23a3.17,3.17,0,0,0,3.4,3.44,6.54,6.54,0,0,0,2.75-.51l.31,1.29a7.89,7.89,0,0,1-3.3.64c-3.05,0-4.88-2-4.88-5s1.76-5.35,4.65-5.35c3.24,0,4.09,2.85,4.09,4.67a6.52,6.52,0,0,1-.06.84Zm5.28-1.29c0-1.15-.47-2.93-2.5-2.93-1.82,0-2.62,1.68-2.76,2.93Z"/><path class="cls-1" d="M309.4,52.94l1.31,5c.29,1.11.56,2.13.74,3.15h.06c.23-1,.55-2.07.88-3.15l1.62-5h1.52l1.54,5c.37,1.19.65,2.23.88,3.24H318a30.77,30.77,0,0,1,.76-3.21l1.41-5H322l-3.19,9.91h-1.64l-1.52-4.73a31.89,31.89,0,0,1-.88-3.26h0a30,30,0,0,1-.9,3.28l-1.6,4.71h-1.64l-3-9.91Z"/><path class="cls-1" d="M328.1,48.31h1.8V62.86h-1.8Z"/><path class="cls-1" d="M334.95,50.16a1.06,1.06,0,0,1-1.15,1.1,1.07,1.07,0,0,1-1.09-1.1A1.1,1.1,0,0,1,333.84,49,1.07,1.07,0,0,1,334.95,50.16Zm-2,12.7V52.94h1.8v9.91Z"/><path class="cls-1" d="M337.92,62.86V54.32h-1.39V52.94h1.39v-.47A4.68,4.68,0,0,1,339.07,49a3.47,3.47,0,0,1,2.42-.92,4.25,4.25,0,0,1,1.54.29l-.25,1.4a2.69,2.69,0,0,0-1.15-.23c-1.53,0-1.92,1.35-1.92,2.86v.53h2.4v1.38h-2.4v8.54Z"/><path class="cls-1" d="M344.45,58.23a3.18,3.18,0,0,0,3.4,3.44,6.55,6.55,0,0,0,2.74-.51l.31,1.29a7.91,7.91,0,0,1-3.3.64c-3.05,0-4.88-2-4.88-5s1.76-5.35,4.65-5.35c3.24,0,4.1,2.85,4.1,4.67a6.59,6.59,0,0,1-.06.84Zm5.29-1.29c0-1.15-.47-2.93-2.5-2.93-1.82,0-2.62,1.68-2.77,2.93Z"/><path class="cls-1" d="M354.55,63.08a1.27,1.27,0,0,1,0-2.54,1.27,1.27,0,0,1,0,2.54Zm-.68-4.2-.29-9.83h2l-.29,9.83Z"/></g></g></svg>
