<svg xmlns="http://www.w3.org/2000/svg" width="41.969" height="35.03" viewBox="0 0 41.969 35.03">
  <metadata><?xpacket begin="﻿" id="W5M0MpCehiHzreSzNTczkc9d"?>
<x:xmpmeta xmlns:x="adobe:ns:meta/" x:xmptk="Adobe XMP Core 5.6-c132 79.159284, 2016/04/19-13:13:40        ">
   <rdf:RDF xmlns:rdf="http://www.w3.org/1999/02/22-rdf-syntax-ns#">
      <rdf:Description rdf:about=""
            xmlns:xmp="http://ns.adobe.com/xap/1.0/">
         <xmp:CreatorTool>Adobe Photoshop CC 2015.5 (Windows)</xmp:CreatorTool>
      </rdf:Description>
   </rdf:RDF>
</x:xmpmeta>
                                                                                                    
                                                                                                    
                                                                                                    
                                                                                                    
                                                                                                    
                                                                                                    
                                                                                                    
                                                                                                    
                                                                                                    
                                                                                                    
                                                                                                    
                                                                                                    
                                                                                                    
                                                                                                    
                                                                                                    
                                                                                                    
                                                                                                    
                                                                                                    
                                                                                                    
                                                                                                    
                           
<?xpacket end="w"?></metadata>
<defs>
    <style>
      .cls-1 {
        fill: #fff;
        fill-rule: evenodd;
      }
    </style>
  </defs>
  <path class="cls-1" d="M438.727,4857.42l-2.127-2.1v-9.85a0.925,0.925,0,0,0-.409-0.76l-18.875-12.59a0.926,0.926,0,0,0-1.033,0l-18.876,12.59a0.913,0.913,0,0,0,0,1.52l6.258,4.18v7.5a0.92,0.92,0,0,0,.408.76l12.211,8.14a0.924,0.924,0,0,0,1.032,0l12.211-8.14a0.919,0.919,0,0,0,.407-0.76v-7.5l4.818-3.21v8.12l-2.127,2.1a0.917,0.917,0,0,0,0,1.3l2.4,2.37a0.927,0.927,0,0,0,1.308,0l2.4-2.37A0.916,0.916,0,0,0,438.727,4857.42Zm-10.641,0-11.286,7.53-11.286-7.53v-5.78l10.77,7.19a0.954,0.954,0,0,0,.911.07,0.643,0.643,0,0,0,.121-0.07l10.77-7.19v5.78h0Zm0.408-8.26-11.694,7.81-11.694-7.81-5.528-3.69,17.222-11.49,17.221,11.49Zm7.182,9.99-1.09-1.08,1.09-1.08,1.09,1.08Z" transform="translate(-397.031 -4831.97)"/>
</svg>
